<svg xmlns="http://www.w3.org/2000/svg" xmlns:xlink="http://www.w3.org/1999/xlink" version="1.1" x="0px" y="0px" viewBox="0 0 100 100" enable-background="new 0 0 100 100" xml:space="preserve"><g><g><g><path fill="#000000" d="M16.231,45.562c-3.688,0-7.439-0.208-11.239-0.623l0.01-0.091c9.031,0.987,17.796,0.799,26.052-0.561     c8.559-1.409,16.88-4.128,24.732-8.081l0.042,0.082c-7.861,3.957-16.192,6.679-24.76,8.089     C26.279,45.167,21.316,45.562,16.231,45.562z"/></g><g><path fill="#000000" d="M15.301,50.22c-1.679,0-3.37-0.04-5.073-0.118l0.009-0.183c19.005,0.882,35.756-3.005,51.205-11.889     l0.092,0.159c-7.789,4.479-16.121,7.744-24.765,9.706C29.953,49.441,22.752,50.22,15.301,50.22z"/></g><g><path fill="#000000" d="M15.914,54.938l-0.004-0.275c19.114-0.278,36.429-5.399,51.462-15.218l0.15,0.23     C52.445,49.523,35.082,54.658,15.914,54.938z"/></g><g><path fill="#000000" d="M22.024,59.416l-0.027-0.365c19.444-1.485,36.791-7.753,51.558-18.63l0.218,0.296     C58.949,51.634,41.539,57.925,22.024,59.416z"/></g><g><path fill="#000000" d="M28.563,63.456l-0.05-0.362c19.703-2.729,37.026-10.176,51.489-22.137l0.234,0.282     C65.719,53.244,48.334,60.719,28.563,63.456z"/></g><g><path fill="#000000" d="M35.502,67.166l-0.108-0.539c19.913-3.988,37.138-12.638,51.196-25.708l0.374,0.403     C72.83,54.462,55.516,63.158,35.502,67.166z"/></g><g><path fill="#000000" d="M42.798,70.327l-0.141-0.531c20.063-5.3,37.14-15.187,50.757-29.386l0.397,0.38     C80.124,55.063,62.96,65.001,42.798,70.327z"/></g><g><path fill="#000000" d="M84.665,45.571c-5.105,0-10.086-0.398-14.894-1.193c-8.558-1.414-16.875-4.137-24.719-8.09l0.041-0.082     c7.836,3.949,16.145,6.668,24.693,8.082c8.245,1.363,16.998,1.558,26.015,0.579l0.01,0.091     C92.043,45.368,88.322,45.571,84.665,45.571z"/></g><g><path fill="#000000" d="M85.476,50.231c-16.934,0-32.069-3.958-46.127-12.043l0.091-0.159     c15.422,8.869,32.146,12.76,51.12,11.902l0.008,0.183C88.853,50.192,87.155,50.231,85.476,50.231z"/></g><g><path fill="#000000" d="M84.892,54.945c-19.143-0.294-36.481-5.432-51.534-15.271l0.151-0.23     c15.008,9.81,32.297,14.933,51.387,15.227L84.892,54.945z"/></g><g><path fill="#000000" d="M78.754,59.417c-19.474-1.511-36.852-7.804-51.648-18.706l0.217-0.295     c14.741,10.861,32.055,17.13,51.46,18.635L78.754,59.417z"/></g><g><path fill="#000000" d="M72.239,63.453C52.49,60.699,35.131,53.224,20.644,41.235l0.234-0.282     C35.312,52.898,52.609,60.346,72.29,63.091L72.239,63.453z"/></g><g><path fill="#000000" d="M65.298,67.156c-19.982-4.019-37.27-12.713-51.383-25.839l0.374-0.403     C28.327,53.97,45.525,62.618,65.407,66.617L65.298,67.156z"/></g><g><path fill="#000000" d="M58.001,70.312c-20.125-5.34-37.261-15.273-50.93-29.525l0.397-0.38     c13.598,14.178,30.647,24.06,50.674,29.374L58.001,70.312z"/></g></g></g></svg>
