<?xml version="1.0" encoding="UTF-8" standalone="no"?>
<svg
   xmlns="http://www.w3.org/2000/svg"
   version="1.1"
   viewBox="0 0 100 100"
   x="0px"
   y="0px"
   id="svg4936"
   width="100"
   height="100" >
  <defs
     id="defs4940" />
  <sodipodi:namedview
     pagecolor="#ffffff"
     bordercolor="#666666"
     borderopacity="1"
     objecttolerance="10"
     gridtolerance="10"
     guidetolerance="10" />
  <path
     style="color:#000000;text-indent:0;text-transform:none;direction:ltr;baseline-shift:baseline;enable-background:accumulate"
     d="M 49.406,4.125 C 34.964,4.323 20.868,11.414 12.375,24.344 -1.215,45.032 4.562,73.004 25.25,86.594 45.873,100.14 73.738,94.435 87.375,73.906 l 6.156,4.032 0.719,-14 L 95,49.875 82.5,56.25 69.969,62.625 76.594,66.938 C 66.75,81.589 47.102,85.59 32.312,75.875 17.426,66.097 13.315,46.292 23.094,31.406 32.872,16.52 52.676,12.409 67.562,22.188 c 3.669,2.409 6.81,5.549 9.219,9.218 L 87.5,24.344 C 84.128,19.207 79.761,14.842 74.625,11.469 66.867,6.3727 58.071,4.0062 49.406,4.125 Z m -4.468,19.906 v 20 h -20 v 10 h 20 v 20 h 10 v -20 h 20 v -10 h -20 v -20 z"
     id="path4930" />
</svg>
