<?xml version="1.0" encoding="UTF-8" standalone="no"?>
<svg
   xmlns="http://www.w3.org/2000/svg"
   version="1.1"
   x="0px"
   y="0px"
   viewBox="0 0 100 100"
   enable-background="new 0 0 100 100"
   xml:space="preserve"
   id="svg4888"
   width="100"
   height="100" ><defs
     id="defs4892" /><sodipodi:namedview
     pagecolor="#ffffff"
     bordercolor="#666666"
     borderopacity="1"
     objecttolerance="10"
     gridtolerance="10"
     guidetolerance="10"
     id="namedview4890"
     showgrid="false" /><g
     display="none"
     id="g4704"
     style="display:none"
     transform="translate(0,-25)"><g
       display="inline"
       id="g4700"
       style="display:inline"><path
         d="m 75.309,56.443 c 3.066,-2.032 6.133,-4.065 9.199,-6.098 -1.578,-3.884 -2.939,-7.923 -4.518,-11.81 -2.975,2.272 -5.949,4.543 -8.925,6.814 1.483,3.651 2.76,7.445 4.244,11.094 z"
         id="path4690" /><path
         d="m 66.109,62.539 c 1.385,3.415 2.961,6.694 5.104,9.57 3.185,-1.812 6.366,-3.624 9.551,-5.437 -2.29,-3.074 -3.975,-6.58 -5.455,-10.229 -3.068,2.032 -6.134,4.065 -9.2,6.096 z"
         id="path4692"
          /><path
         d="m 90.314,61.235 c -3.184,1.812 -6.366,3.624 -9.551,5.438 2.29,3.072 5.188,5.714 9.097,7.635 3.38,-1.649 6.761,-3.297 10.14,-4.944 -4.162,-2.046 -7.245,-4.857 -9.686,-8.129 z"
         id="path4694"
          /><path
         d="m 71.213,72.109 c -3.184,1.813 -6.368,3.625 -9.553,5.438 -1.994,-2.677 -3.46,-5.731 -4.752,-8.909 3.066,-2.034 6.136,-4.064 9.201,-6.099 -1.387,-3.414 -2.584,-6.963 -3.971,-10.377 -2.975,2.271 -5.949,4.542 -8.924,6.813 -1.291,-3.18 -2.757,-6.232 -4.753,-8.911 2.858,-2.49 5.716,-4.981 8.574,-7.471 -2.144,-2.876 -4.854,-5.346 -8.511,-7.144 2.661,-2.655 5.324,-5.309 7.988,-7.965 3.907,1.922 6.804,4.562 9.095,7.636 2.858,-2.491 5.716,-4.981 8.574,-7.473 -2.438,-3.271 -5.522,-6.082 -9.685,-8.127 l -3.244,0.028 c -2.662,2.656 -5.324,5.312 -7.987,7.967 -2.662,2.655 -5.325,5.31 -7.986,7.965 -2.662,2.654 -5.325,5.31 -7.986,7.965 3.403,1.673 5.927,3.973 7.922,6.649 1.996,2.676 3.462,5.73 4.753,8.909 1.29,3.179 2.403,6.484 3.694,9.662 1.291,3.181 2.758,6.232 4.753,8.909 1.995,2.677 4.518,4.977 7.923,6.648 l 3.246,-0.029 c 3.379,-1.647 6.759,-3.296 10.136,-4.943 -3.654,-1.794 -6.365,-4.266 -8.507,-7.141 z"
         id="path4696"
          /><path
         d="m 65.608,35.121 c -2.856,2.491 -5.716,4.981 -8.572,7.473 2.142,2.875 3.717,6.155 5.103,9.568 C 65.116,49.891 68.09,47.62 71.066,45.35 69.585,41.699 67.9,38.194 65.608,35.121 Z"
         id="path4698"
          /></g><path
       display="inline"
       d="M 1.406,72.664 C 2.411,73.668 3.437,74.271 3.7,74.01 L 59.48,18.229 c 0.263,-0.261 -0.34,-1.29 -1.346,-2.294 -1.004,-1.004 -2.03,-1.606 -2.292,-1.344 l -55.78,55.78 c -0.263,0.26 0.339,1.289 1.344,2.293 z"
       id="path4702"

       style="display:inline" /></g><g
     display="none"
     id="g4708"
     style="display:none"
     transform="translate(0,-25)"><path
       display="inline"
       d="M 95.933,40.134 H 91.986 C 90.817,33.584 88.299,28.251 83.835,28.251 H 8.965 C 2.348,28.251 0,39.967 0,50 0,60.033 2.348,71.749 8.965,71.749 h 74.869 c 4.465,0 6.982,-5.333 8.151,-11.884 h 3.947 c 3.003,0 4.067,-5.314 4.067,-9.865 C 100,45.449 98.936,40.134 95.933,40.134 Z M 4.374,39.365 c 0.701,-3.231 1.71,-5.693 2.89,-6.916 h 0.025 0.253 77.968 0.025 c 1.181,1.223 2.189,3.684 2.891,6.916 H 4.374 Z m 88.242,5.81 C 92.535,44.12 92.423,43.07 92.284,42.039 h 4.409 0.011 c 0.536,0.554 0.992,1.671 1.31,3.136 z"
       id="path4706"

       style="display:inline" /></g><g
     display="none"
     id="g4716"
     style="display:none"
     transform="translate(0,-25)"><path
       display="inline"
       d="m 98.943,73.272 c 0.58,0 1.056,-0.476 1.056,-1.056 v -4.219 c 0,-0.58 -0.476,-1.055 -1.056,-1.055 H 28.402 c -0.704,1.555 -2.261,2.643 -4.079,2.643 -1.817,0 -3.375,-1.088 -4.079,-2.643 h -3.57 l -0.618,0.618 c -3.498,3.497 -5.424,8.146 -5.424,13.093 0,4.947 1.927,9.599 5.424,13.095 l 0.618,0.619 h 3.495 c 0.664,-1.647 2.27,-2.813 4.154,-2.813 1.885,0 3.491,1.166 4.154,2.813 h 70.468 c 0.578,0 1.055,-0.476 1.055,-1.056 v -4.22 c 0,-0.579 -0.477,-1.055 -1.055,-1.055 h -4.34 c -1.334,-2.205 -2.049,-4.74 -2.049,-7.385 0,-2.643 0.715,-5.177 2.049,-7.383 h 4.338 z M 23.536,88.04 h -4.085 c -1.614,-2.111 -2.488,-4.682 -2.488,-7.385 0,-2.701 0.874,-5.271 2.489,-7.383 h 4.084 66.34 c -0.491,1.132 -0.87,2.311 -1.13,3.525 H 61.425 c -0.873,0 -1.582,0.709 -1.582,1.582 0,0.873 0.709,1.582 1.582,1.582 h 26.948 c -0.008,0.231 -0.036,0.461 -0.036,0.692 0,2.585 0.538,5.084 1.539,7.384 h -66.34 z"
       id="path4710"

       style="display:inline" /><path
       display="inline"
       d="m 98.943,11.961 c 0.58,0 1.056,-0.476 1.056,-1.056 V 6.687 c 0,-0.58 -0.476,-1.055 -1.056,-1.055 H 28.402 c -0.704,1.555 -2.261,2.642 -4.079,2.642 -1.817,0 -3.375,-1.087 -4.079,-2.642 h -3.57 L 16.057,6.25 c -3.497,3.498 -5.424,8.147 -5.424,13.095 0,4.946 1.927,9.598 5.424,13.095 l 0.618,0.618 h 3.495 c 0.664,-1.647 2.27,-2.813 4.154,-2.813 1.885,0 3.491,1.166 4.154,2.813 h 70.468 c 0.578,0 1.055,-0.476 1.055,-1.056 v -4.219 c 0,-0.58 -0.477,-1.055 -1.055,-1.055 h -4.34 c -1.334,-2.206 -2.049,-4.739 -2.049,-7.384 0,-2.644 0.715,-5.179 2.049,-7.384 h 4.337 z M 23.536,26.729 h -4.085 c -1.614,-2.112 -2.488,-4.682 -2.488,-7.384 0,-2.703 0.874,-5.271 2.489,-7.384 h 4.084 66.34 c -0.491,1.13 -0.87,2.312 -1.13,3.525 H 61.425 c -0.873,0 -1.582,0.708 -1.582,1.582 0,0.874 0.709,1.582 1.582,1.582 h 26.948 c -0.008,0.231 -0.036,0.46 -0.036,0.692 0,2.585 0.538,5.083 1.539,7.385 z"
       id="path4712"

       style="display:inline" /><path
       display="inline"
       d="m 83.973,57.386 c -1.334,-2.205 -2.049,-4.74 -2.049,-7.384 0,-2.645 0.715,-5.179 2.049,-7.384 h 4.34 c 0.58,0 1.055,-0.476 1.055,-1.056 v -4.218 c 0,-0.58 -0.475,-1.056 -1.055,-1.056 H 17.846 c -0.663,1.646 -2.27,2.812 -4.154,2.812 -1.883,0 -3.49,-1.166 -4.153,-2.812 H 6.043 L 5.425,36.906 C 1.927,40.403 0,45.055 0,50 c 0,4.946 1.927,9.599 5.425,13.096 l 0.618,0.617 h 3.57 c 0.704,-1.556 2.261,-2.643 4.079,-2.643 1.817,0 3.375,1.087 4.079,2.643 h 70.542 c 0.58,0 1.056,-0.475 1.056,-1.055 v -4.22 c 0,-0.58 -0.476,-1.056 -1.056,-1.056 h -4.34 z m -4.73,-14.767 c -1.001,2.3 -1.539,4.799 -1.539,7.383 0,0.233 0.028,0.463 0.036,0.693 H 50.792 c -0.874,0 -1.582,0.709 -1.582,1.582 0,0.874 0.708,1.582 1.582,1.582 h 27.321 c 0.26,1.215 0.638,2.396 1.13,3.526 H 12.902 8.818 C 7.203,55.273 6.329,52.704 6.329,50.001 c 0,-2.703 0.874,-5.272 2.488,-7.384 h 4.084 z"
       id="path4714"

       style="display:inline" /></g><g
     display="none"
     id="g4720"
     style="display:none"
     transform="translate(0,-25)"><path
       display="inline"
       d="m 84.904,43.786 c -1.282,-1.974 -3.249,-3.328 -5.538,-3.815 -0.6,-0.127 -1.212,-0.191 -1.821,-0.191 -1.35,0 -2.642,0.317 -3.803,0.879 0.164,-1.933 -0.308,-3.859 -1.387,-5.52 -1.282,-1.974 -3.249,-3.329 -5.538,-3.815 -0.599,-0.127 -1.211,-0.192 -1.82,-0.192 -1.152,0 -2.261,0.235 -3.285,0.651 L 66.211,10.618 C 66.697,8.329 66.26,5.981 64.978,4.008 63.696,2.035 61.729,0.68 59.44,0.194 57.15,-0.293 54.803,0.146 52.83,1.427 50.857,2.709 49.501,4.676 49.015,6.965 L 40.037,49.201 31.06,6.964 C 30.574,4.675 29.218,2.708 27.245,1.426 25.271,0.144 22.922,-0.293 20.634,0.193 c -2.289,0.486 -4.255,1.841 -5.538,3.815 -1.282,1.974 -1.719,4.321 -1.233,6.61 l 9.734,45.797 -0.199,3.604 c -2.782,1.268 -4.837,3.956 -5.187,7.075 -0.005,0.04 -0.01,0.081 -0.014,0.122 -0.026,0.271 -0.044,0.542 -0.044,0.817 0,0.1 0.006,0.211 0.013,0.329 0.001,0.029 0.004,0.061 0.006,0.091 0.02,0.256 0.054,0.551 0.103,0.878 0.002,0.019 0.005,0.037 0.008,0.057 0.372,2.489 1.46,6.751 2.148,9.327 1.476,5.582 3.224,11.515 3.78,13.383 1.404,4.431 6.144,7.9 10.792,7.9 h 31.181 c 4.575,0 9.555,-3.3 11.338,-7.514 l 2.219,-5.244 c 1.567,-3.706 2.843,-9.995 2.843,-14.018 v -6.11 l 3.554,-16.718 c 0.485,-2.287 0.048,-4.634 -1.234,-6.608 z M 66.04,34.987 c 2.722,0.578 4.464,3.263 3.886,5.984 l -4.189,19.707 c -1.379,-0.902 -3.024,-1.432 -4.793,-1.432 h -5.219 l 4.33,-20.374 c 0.493,-2.315 2.571,-3.996 4.942,-3.996 0.348,0.001 0.699,0.038 1.043,0.111 z M 17.526,9.841 C 17.248,8.53 17.5,7.183 18.236,6.049 c 0.736,-1.134 1.865,-1.914 3.176,-2.192 1.312,-0.28 2.658,-0.026 3.793,0.711 1.135,0.737 1.914,1.864 2.192,3.175 l 9.957,46.846 c 0.184,0.865 0.947,1.483 1.831,1.483 h 1.703 c 0.884,0 1.647,-0.618 1.832,-1.483 L 52.678,7.743 c 0.578,-2.721 3.266,-4.466 5.984,-3.886 2.722,0.578 4.465,3.263 3.886,5.984 l -5.684,26.741 c -0.2,0.483 -0.36,0.988 -0.472,1.513 L 51.896,59.246 H 27.191 l 0.159,-2.871 c 0.009,-0.166 -0.004,-0.331 -0.038,-0.493 z m 58.766,75.942 -2.219,5.244 c -1.199,2.834 -4.812,5.229 -7.89,5.229 H 35.002 c -3.006,0 -6.314,-2.421 -7.212,-5.255 -1.436,-4.829 -3.401,-11.778 -4.659,-16.833 -0.68,-2.764 -1.234,-5.312 -1.234,-6.133 0,-2.64 2.405,-5.045 5.046,-5.045 h 34 c 2.783,0 5.046,2.264 5.046,5.045 0,2.783 -2.263,5.047 -5.046,5.047 H 40.778 c -0.37,0 -0.731,0.108 -1.039,0.314 l -5.188,3.458 c -0.861,0.573 -1.093,1.735 -0.52,2.596 0.574,0.86 1.734,1.094 2.596,0.52 l 4.716,-3.144 h 19.599 c 2.889,0 5.447,-1.407 7.051,-3.562 1.079,0.932 2.393,1.62 3.883,1.938 0.6,0.127 1.213,0.191 1.821,0.191 1.891,0 3.67,-0.619 5.131,-1.672 -0.097,3.564 -1.218,8.945 -2.536,12.062 z m 6.182,-36.165 -3.833,18.034 c -0.491,2.315 -2.57,3.996 -4.942,3.996 -0.348,0 -0.699,-0.037 -1.042,-0.11 -1.286,-0.273 -2.35,-1.021 -3.058,-2.018 0.083,-0.484 0.136,-0.978 0.136,-1.485 0,-1.253 -0.268,-2.442 -0.743,-3.522 L 72.604,47.52 c 0.492,-2.315 2.57,-3.996 4.941,-3.996 0.348,0 0.7,0.037 1.043,0.11 2.722,0.578 4.465,3.263 3.886,5.984 z"
       id="path4718"

       style="display:inline" /></g><g
     display="none"
     id="g4726"
     style="display:none"
     transform="translate(0,-25)"><path
       display="inline"
       d="M 90.767,40.015 H 100 v -8.826 h -9.249 c -0.488,-2.093 -1.317,-4.055 -2.423,-5.826 l 6.546,-6.545 -6.241,-6.24 -6.552,6.552 c -1.77,-1.1 -3.729,-1.924 -5.82,-2.41 V 7.455 h -8.824 v 9.265 c -2.092,0.485 -4.052,1.31 -5.823,2.411 l -6.549,-6.55 -6.239,6.241 6.543,6.543 c -1.107,1.772 -1.936,3.735 -2.425,5.829 h -9.241 v 8.826 h 9.229 c 0.486,2.1 1.312,4.07 2.419,5.848 l -6.522,6.522 6.241,6.24 6.518,-6.519 c 1.778,1.111 3.75,1.942 5.854,2.432 v 9.21 h 8.823 v -9.212 c 2.104,-0.49 4.075,-1.322 5.854,-2.434 l 6.518,6.52 6.241,-6.24 -6.526,-6.526 c 1.102,-1.779 1.929,-3.747 2.415,-5.846 z M 71.85,44.456 c -4.875,0 -8.826,-3.952 -8.826,-8.824 0,-4.875 3.951,-8.826 8.826,-8.826 4.874,0 8.823,3.951 8.823,8.826 0,4.871 -3.949,8.824 -8.823,8.824 z"
       id="path4722"

       style="display:inline" /><path
       display="inline"
       d="m 47.064,68.806 h 9.233 V 59.98 H 47.048 C 46.56,57.887 45.73,55.926 44.625,54.155 l 6.546,-6.545 -6.24,-6.24 -6.553,6.552 c -1.77,-1.1 -3.729,-1.924 -5.82,-2.41 v -9.265 h -8.824 v 9.265 c -2.093,0.485 -4.052,1.31 -5.823,2.411 l -6.55,-6.55 -6.239,6.241 6.543,6.542 C 10.558,55.928 9.729,57.891 9.24,59.985 H 0 v 8.825 h 9.229 c 0.486,2.101 1.313,4.07 2.419,5.848 l -6.522,6.524 6.241,6.238 6.518,-6.517 c 1.779,1.11 3.75,1.941 5.855,2.43 v 9.211 h 8.824 v -9.213 c 2.103,-0.489 4.075,-1.32 5.854,-2.433 l 6.518,6.519 6.24,-6.239 -6.526,-6.526 c 1.102,-1.778 1.929,-3.746 2.414,-5.846 z m -18.917,4.442 c -4.875,0 -8.826,-3.952 -8.826,-8.825 0,-4.875 3.952,-8.825 8.826,-8.825 4.874,0 8.823,3.95 8.823,8.825 0,4.873 -3.949,8.825 -8.823,8.825 z"
       id="path4724"

       style="display:inline" /></g><g
     display="none"
     id="g4740"
     style="display:none"
     transform="translate(0,-25)"><g
       display="inline"
       id="g4730"
       style="display:inline"><polygon
         points="13.064,91.936 14.444,93.316 19.306,90.386 60.693,48.999 57.387,45.69 15.997,87.077 "
         id="polygon4728" /></g><g
       display="inline"
       id="g4734"
       style="display:inline"><path
         d="M 97.542,8.841 C 94.396,5.697 89.469,5.505 86.324,8.648 L 62.127,32.845 c -0.278,0.28 -0.278,0.729 0,1.01 0.821,0.823 0.821,2.152 0,2.973 -0.818,0.82 -2.151,0.823 -2.974,10e-4 -0.278,-0.28 -0.729,-0.28 -1.01,-10e-4 l -2.787,2.788 c -0.229,0.233 -0.258,0.58 -0.102,0.853 L 65.913,51.13 c 0.275,0.156 0.623,0.128 0.855,-0.103 l 2.787,-2.787 c 0.277,-0.279 0.275,-0.73 -0.003,-1.01 -0.821,-0.821 -0.821,-2.155 0,-2.976 0.819,-0.821 2.154,-0.818 2.975,0 0.276,0.281 0.729,0.281 1.009,0 L 97.733,20.061 c 3.148,-3.147 2.955,-8.073 -0.191,-11.22 z"
         id="path4732"
          /></g><path
       display="inline"
       d="M 86.777,80.44 58.422,54.1 l -9.92,9.919 27.217,27.239 c 3.003,3.124 7.813,3.124 10.937,0.121 3.006,-3.126 3.125,-7.934 0.121,-10.939 z m -2.766,8.29 c -1.56,1.686 -4.085,1.446 -5.77,-0.12 -1.44,-1.441 -1.44,-4.083 0,-5.645 1.685,-1.566 4.21,-1.566 5.77,0 1.563,1.562 1.563,4.326 0,5.765 z"
       id="path4736"

       style="display:inline" /><path
       display="inline"
       d="M 42.37,57.879 52.059,48.191 33.302,30.767 C 30.54,27.764 29.815,26.562 30.54,23.074 31.383,19.227 30.709,12.167 24.168,8.405 16.649,4.08 9.02,8.045 9.02,8.045 l -0.6,0.963 c 0,0 6.733,4.448 7.574,4.928 0.961,0.603 3.845,3.846 0.358,9.017 -3.368,5.171 -7.091,3.485 -8.173,2.646 C 7.338,25.117 0.605,20.788 0.605,20.788 L 0.006,21.75 c 0,0 -0.483,9.016 6.968,13.825 3.486,2.282 7.216,2.282 9.861,1.322 2.645,-0.841 4.565,0.122 7.813,3.246 z"
       id="path4738"

       style="display:inline" /></g><g
     display="none"
     id="g4750"
     style="display:none"
     transform="translate(0,-25)"><g
       display="inline"
       id="g4748"
       style="display:inline"><polygon
         points="43.45,48.974 43.476,48.988 68.326,34.647 68.32,22.36 7.493,57.449 82.193,100 92.475,94.07 73.438,83.138 28.757,57.483 30.274,56.608 "
         id="polygon4742" /><polygon
         points="80.993,70.359 80.96,0 6.462,42.973 6.468,55.615 70.418,18.728 70.426,35.858 70.439,64.348 "
         id="polygon4744" /><polygon
         points="70.44,66.771 68.167,65.468 43.483,51.406 32.962,57.479 93.538,92.26 93.497,6.007 83.059,0.014 83.093,73.972 70.441,66.764 "
         id="polygon4746" /></g></g><g
     display="none"
     id="g4754"
     style="display:none"
     transform="translate(0,-25)"><path
       display="inline"
       d="M 86.207,14.803 71.403,0 h -57.61 v 94.827 c 0,2.948 3.706,5.173 8.62,5.173 4.915,0 8.621,-2.225 8.621,-5.173 v 0 -75.147 l 10.345,10.345 v 64.803 0 c 0,2.948 3.706,5.173 8.621,5.173 4.914,0 8.62,-2.225 8.62,-5.173 V 13.793 H 27.586 v 76.848 c -1.423,-0.621 -3.196,-0.985 -5.173,-0.985 -1.975,0 -3.749,0.364 -5.172,0.985 V 3.448 h 51.725 v 91.379 c 0,2.948 3.705,5.173 8.62,5.173 4.914,0 8.621,-2.225 8.621,-5.173 v 0 z M 55.172,90.641 C 53.749,90.02 51.975,89.656 50,89.656 c -1.977,0 -3.75,0.364 -5.173,0.985 V 31.034 H 55.172 Z M 50,96.552 c -3.338,0 -5.173,-1.296 -5.173,-1.725 0,-0.429 1.835,-1.724 5.173,-1.724 3.338,0 5.172,1.295 5.172,1.724 0,0.429 -1.834,1.725 -5.172,1.725 z M 55.172,27.586 H 43.817 L 33.473,17.241 H 55.172 Z M 22.413,93.104 c 3.338,0 5.173,1.295 5.173,1.724 0,0.429 -1.835,1.725 -5.173,1.725 -3.338,0 -5.172,-1.296 -5.172,-1.725 0,-0.429 1.834,-1.724 5.172,-1.724 z M 82.759,16.231 V 90.64 c -1.423,-0.621 -3.197,-0.985 -5.173,-0.985 -1.976,0 -3.75,0.364 -5.172,0.985 V 5.886 Z m -5.173,80.321 c -3.338,0 -5.172,-1.296 -5.172,-1.725 0,-0.429 1.834,-1.724 5.172,-1.724 3.337,0 5.173,1.295 5.173,1.724 0,0.429 -1.836,1.725 -5.173,1.725 z"
       id="path4752"

       style="display:inline" /></g><g
     display="none"
     id="g4758"
     style="display:none"
     transform="translate(0,-25)"><path
       display="inline"
       d="M 79.386,25.958 V 1.88 H 79.384 L 78.299,0 h -2.17 l -1.087,1.88 v 0 1.864 c -16.669,1.309 -33.416,1.309 -50.085,0 v -1.864 0 L 23.871,0 h -2.17 l -1.085,1.88 h -0.002 v 24.078 h -6.08 v 3.379 h 6.08 V 44.3 l 26.316,26.315 -9.845,9.844 h -9.883 v 3.379 h 6.505 L 21.176,96.369 V 96.37 L 20.614,98.465 22.15,100 24.246,99.438 V 99.44 L 39.849,83.838 H 60.153 L 75.756,99.44 V 99.438 L 77.85,100 79.386,98.465 78.824,96.37 V 96.369 L 66.293,83.838 h 6.504 V 80.459 H 62.914 L 53.07,70.615 79.386,44.3 V 29.337 h 6.08 V 25.958 Z M 75.042,26 v 3.337 10.64 c -16.278,5.275 -33.806,5.275 -50.085,0 V 29.337 26 c 16.669,1.31 33.416,1.31 50.085,0 z M 56.773,80.459 H 43.227 L 50,73.686 Z M 50,67.545 43.374,60.918 H 56.627 Z M 41.443,58.987 27.706,45.25 c 14.571,4.158 30.017,4.158 44.588,0 L 58.557,58.987 Z"
       id="path4756"

       style="display:inline" /></g><g
     display="none"
     id="g4762"
     style="display:none"
     transform="translate(0,-25)"><path
       display="inline"
       d="M 97.756,84.123 71.173,57.54 C 74.896,51.718 77.089,44.828 77.089,37.421 77.089,16.787 60.302,0 39.667,0 19.033,0 2.244,16.787 2.244,37.421 c 0,20.634 16.789,37.427 37.423,37.427 5.039,0 9.84,-1.015 14.231,-2.829 L 81.88,100 Z M 19.085,37.421 c 0,-11.348 9.234,-20.58 20.582,-20.58 11.348,0 20.58,9.232 20.58,20.58 0,11.354 -9.232,20.586 -20.58,20.586 -11.348,0 -20.582,-9.232 -20.582,-20.586 z"
       id="path4760"

       style="display:inline" /></g><g
     display="none"
     id="g4766"
     style="display:none"
     transform="translate(0,-25)"><path
       display="inline"
       d="M 96.792,44.66 55.341,3.208 C 53.915,1.786 52.018,1.001 49.999,1.001 c -2.018,0 -3.915,0.785 -5.338,2.207 L 3.209,44.66 C 1.783,46.085 1,47.98 1,50.003 c 0,2.016 0.783,3.915 2.209,5.336 L 44.66,96.791 c 1.424,1.426 3.321,2.208 5.338,2.208 2.019,0 3.919,-0.782 5.342,-2.208 L 96.792,55.34 c 2.945,-2.942 2.945,-7.735 0,-10.68 z M 37.743,71.233 c -0.565,0.554 -1.097,1.074 -1.602,1.577 l -7.232,-7.232 c 0.55,-0.547 1.107,-1.094 1.694,-1.664 5.147,-5.021 11.313,-11.036 13.477,-23.072 -0.525,0.124 -1.023,0.265 -1.486,0.423 l -1.936,0.667 c -4.069,1.405 -5.402,-0.346 -2.965,-3.891 l 7.864,-11.442 0.002,-0.003 4.43,-6.447 4.429,6.451 7.863,11.442 c 2.436,3.542 1.104,5.296 -2.966,3.891 l -1.932,-0.667 c -0.463,-0.158 -0.963,-0.299 -1.486,-0.423 2.164,12.036 8.329,18.05 13.479,23.072 0.587,0.57 1.144,1.117 1.69,1.664 l -7.229,7.232 C 63.33,72.308 62.797,71.788 62.233,71.234 58.446,67.541 53.598,62.815 49.987,55.505 46.379,62.814 41.532,67.54 37.743,71.233 Z"
       id="path4764"

       style="display:inline" /></g><g
     display="none"
     id="g4776"
     style="display:none"
     transform="translate(0,-25)"><g
       display="inline"
       id="g4774"
       style="display:inline"><path
         d="M 79.839,79.279 H 90.062 V 74.861 L 100,84.805 90.062,94.75 v -4.418 h -24.16 c 5.35,-2.738 10.075,-6.51 13.937,-11.053 z"
         id="path4768"
          /><path
         d="m 41.186,21.016 c -14.209,2.013 -25.159,14.241 -25.159,28.987 0,10.114 5.157,19.046 12.971,24.31 H 13.153 C 8.03,67.547 4.975,59.124 4.975,50.003 4.975,29.356 20.581,12.29 40.606,9.956 l -5.248,5.242 z"
         id="path4770"
          /><path
         d="M 5.532,84.805 0.011,79.28 h 45.298 c 16.14,0 29.282,-13.131 29.282,-29.276 0,-14.451 -10.529,-26.482 -24.307,-28.851 v 3.99 l -9.95,-9.944 9.95,-9.947 V 9.99 c 19.899,2.459 35.358,19.457 35.358,40.013 0,22.237 -18.094,40.329 -40.333,40.329 H 0 Z"
         id="path4772"
          /></g></g><g
     display="none"
     id="g4782"
     style="display:none"
     transform="translate(0,-25)"><g
       display="inline"
       id="g4780"
       style="display:inline"><path
         d="m 44.426,57.316 9.258,9.255 v 10.276 h 10.273 l 3.012,3.011 v 10.274 h 9.867 V 100 H 99.999 V 87.111 L 57.314,44.424 C 63.289,32.973 61.471,18.514 51.855,8.896 39.994,-2.965 20.761,-2.965 8.896,8.896 c -11.861,11.865 -11.861,31.098 0,42.96 9.617,9.617 24.079,11.435 35.53,5.46 z M 18.113,18.114 c 3.761,-3.755 9.851,-3.755 13.607,0 3.761,3.759 3.761,9.851 0,13.606 -3.757,3.759 -9.847,3.759 -13.607,0 -3.754,-3.756 -3.754,-9.847 0,-13.606 z"
         id="path4778"
          /></g></g><g
     id="g4804"
     transform="translate(0,1)"><g
       id="g4802"><path
         d="m 50.001,23.267 c -11.727,0 -21.229,9.501 -21.229,21.224 0,2.919 0.591,5.698 1.656,8.23 v 0 l 9.56,27.857 h 19.575 l 9.67,-27.146 c 1.268,-2.72 1.994,-5.742 1.994,-8.941 C 71.228,32.768 61.725,23.267 50.001,23.267 Z"
         id="path4784"
          /><rect
         x="47.790001"
         width="4.4159999"
         height="17.32"
         id="rect4786"
         y="0" /><rect
         x="23.254"
         y="11.299"
         transform="matrix(0.4999,0.8661,-0.8661,0.4999,27.6569,-20.886)"
         width="17.320999"
         height="4.414"
         id="rect4788" /><rect
         x="10.015"
         y="24.535999"
         transform="matrix(-0.8659,-0.5002,0.5002,-0.8659,21.4697,59.2448)"
         width="17.32"
         height="4.4169998"
         id="rect4790" /><polygon
         points="89.929,24.324 87.724,20.505 72.725,29.164 74.928,32.989 "
         id="polygon4792" /><rect
         x="65.875999"
         y="4.8460002"
         transform="matrix(0.8663,0.4995,-0.4995,0.8663,15.8505,-32.2056)"
         width="4.4200001"
         height="17.320999"
         id="rect4794" /><rect
         x="40.714001"
         y="83.219002"
         width="17.323"
         height="3.835"
         id="rect4796" /><rect
         x="40.714001"
         y="89.690002"
         width="17.323"
         height="3.836"
         id="rect4798" /><rect
         x="43.634998"
         y="96.164001"
         width="11.479"
         height="3.836"
         id="rect4800" /></g></g><g
     display="none"
     id="g4810"
     style="display:none"
     transform="translate(0,-25)"><polygon
       display="inline"
       points="37.383,5.507 37.383,23.535 19.355,23.535 "
       id="polygon4806"
       style="display:inline" /><path
       display="inline"
       d="M 41.891,1 V 28.042 H 14.849 V 99 H 85.152 V 1 Z M 73.71,85.063 H 26.289 V 79.264 H 73.71 Z m 0,-16.302 H 26.289 V 62.962 H 73.71 Z m 0,-16.733 H 26.289 V 46.23 H 73.71 Z"
       id="path4808"

       style="display:inline" /></g><g
     display="none"
     id="g4818"
     style="display:none"
     transform="translate(0,-25)"><g
       display="inline"
       id="g4816"
       style="display:inline"><path
         d="m 80.41,34.472 c -15.332,-9.239 -25.794,-11.5 -30.109,-9.805 -1.785,0.7 -3.566,2.992 -5.411,6.049 -1.917,3.172 -3.299,7.986 -2.865,10.057 0.255,1.21 3.564,9.105 22.279,19.545 12.187,6.795 21.861,8.521 23.553,7.955 1.721,-0.568 4.078,-1.847 7.265,-6.301 C 98.068,57.852 99,53.188 99,51.402 99,49.623 92.82,41.95 80.41,34.472 Z M 94.797,52.549 C 93.078,55.608 80.666,51.026 73.027,46.821 65.384,42.618 49.174,31.602 52.974,27.532 c 2.672,-2.866 13.938,0.764 26.162,8.403 12.225,7.639 17.382,13.561 15.661,16.614 z"
         id="path4812"
          /><path
         d="m 48.677,53.545 c -2.624,0.997 -9.263,2.157 -17.522,2.157 -9.201,0 -24.491,-2.157 -24.491,-8.403 0,-7.249 22.567,-10.217 32.607,-9.214 0.096,-0.717 0.334,-1.767 0.334,-1.767 0,0 -1.576,-0.191 -4.677,-0.191 -22.68,0 -30.223,6.444 -31.799,8.784 -1.576,2.34 -2.102,7.399 -2.102,10.218 0,2.819 -0.61,8.516 3.917,13.467 5.107,5.584 16.614,7.256 26.02,7.256 9.405,0 16.232,-0.764 25.924,-5.254 0.56,-1.297 0.572,-2.695 0.572,-3.244 10e-4,-5.351 -5.774,-12.799 -8.783,-13.809 z"
         id="path4814"
          /></g></g><g
     display="none"
     id="g4822"
     style="display:none"
     transform="translate(0,-25)"><path
       display="inline"
       d="M 90.479,35.714 H 87.615 L 77.364,18.627 c -0.644,-1.076 -2.208,-1.96 -3.462,-1.96 H 26.099 c -1.261,0 -2.822,0.885 -3.467,1.96 L 12.382,35.714 H 9.518 C 4.281,35.714 0,40.002 0,45.238 v 2.679 23.812 H 9.518 V 83.333 H 23.811 V 71.729 H 76.184 V 83.333 H 90.479 V 71.729 H 100 V 47.917 45.238 c 0,-5.236 -4.285,-9.524 -9.521,-9.524 z M 26.808,21.958 h 46.384 l 9.69,16.143 c -4.514,1.35 -14.438,3.438 -32.624,3.438 -18.292,0 -28.457,-2.136 -33.103,-3.507 z M 16.666,59.523 c -3.941,0 -7.148,-3.196 -7.148,-7.14 0,-3.945 3.207,-7.146 7.148,-7.146 3.948,0 7.146,3.2 7.146,7.146 0,3.944 -3.198,7.14 -7.146,7.14 z m 50,1.056 H 33.331 c -0.579,0 -1.055,-0.471 -1.055,-1.056 0,-0.587 0.476,-1.055 1.055,-1.055 h 33.335 c 0.578,0 1.056,0.468 1.056,1.055 0,0.585 -0.478,1.056 -1.056,1.056 z m 0,-4.76 H 33.331 c -0.579,0 -1.055,-0.474 -1.055,-1.057 0,-0.584 0.476,-1.059 1.055,-1.059 h 33.335 c 0.578,0 1.056,0.475 1.056,1.059 0,0.584 -0.478,1.057 -1.056,1.057 z m 16.668,3.704 c -3.952,0 -7.149,-3.196 -7.149,-7.14 0,-3.945 3.197,-7.146 7.149,-7.146 3.948,0 7.146,3.2 7.146,7.146 -0.001,3.944 -3.198,7.14 -7.146,7.14 z"
       id="path4820"

       style="display:inline" /></g><g
     display="none"
     id="g4858"
     style="display:none"
     transform="translate(0,-25)"><g
       display="inline"
       id="g4856"
       style="display:inline"><g
         id="g4826"><path
           d="M 77.547,69.98 V 41.969 c -1.656,0.146 -3.432,0.279 -5.328,0.397 v 29.553 c 1.918,-0.577 3.701,-1.226 5.328,-1.939 z"
           id="path4824"
            /></g><g
         id="g4830"><path
           d="M 25.553,42.202 V 71.12 c 6.612,2.348 15.182,3.769 24.552,3.769 2.221,0 4.393,-0.084 6.51,-0.235 V 42.94 c -2.123,0.033 -4.293,0.051 -6.51,0.051 -9.236,0 -17.746,-0.295 -24.552,-0.789 z"
           id="path4828"
            /></g><g
         id="g4836"><g
           id="g4834"><path
             d="m 17.899,38.676 c 7.445,0.959 19.451,1.542 32.206,1.542 12.612,0 24.538,-0.572 31.993,-1.513 0.545,-4.557 2.662,-7.591 5.533,-7.744 C 83.752,13.81 68.43,1 50.105,1 31.771,1 16.443,13.823 12.574,30.987 c 2.757,0.287 4.789,3.258 5.325,7.689 z M 66.18,9.963 c 1.211,-1.251 4.48,-0.05 7.303,2.68 2.824,2.731 4.133,5.961 2.922,7.214 -1.209,1.25 -4.48,0.049 -7.305,-2.682 -2.823,-2.731 -4.131,-5.961 -2.92,-7.212 z"
             id="path4832"
              /></g></g><g
         id="g4842"><g
           id="g4840"><path
             d="m 75.035,73.897 c -5.184,1.769 -11.473,3.025 -18.373,3.522 -0.35,0.023 -0.691,0.056 -1.041,0.075 -0.248,0.016 -0.5,0.022 -0.746,0.035 -0.701,0.036 -1.404,0.071 -2.117,0.092 -0.037,0.001 -0.074,0.001 -0.109,0.003 -0.873,0.023 -1.756,0.036 -2.646,0.037 C 49.113,77.66 48.23,77.647 47.357,77.624 47.321,77.622 47.283,77.622 47.246,77.621 46.532,77.6 45.83,77.565 45.129,77.529 44.882,77.516 44.63,77.509 44.384,77.494 44.033,77.474 43.691,77.442 43.342,77.419 36.441,76.922 30.153,75.665 24.969,73.897 c -4,-1.395 -7.365,-3.133 -9.927,-5.136 l -0.309,-0.076 c 2.482,10.095 9.561,18.531 16.084,23.998 2.366,2.295 4.904,4.15 7.549,5.204 0.179,0.092 0.369,0.205 0.539,0.291 1.631,0.558 6.367,0.832 11.096,0.821 4.73,0.011 9.464,-0.264 11.095,-0.821 0.17,-0.086 0.361,-0.199 0.539,-0.291 2.645,-1.054 5.184,-2.909 7.549,-5.204 C 75.709,87.216 82.788,78.78 85.27,68.685 l -0.311,0.076 c -2.561,2.004 -5.926,3.742 -9.924,5.136 z M 46.334,91.596 c 0,0.512 -0.414,0.926 -0.923,0.926 -0.509,0 -0.924,-0.414 -0.924,-0.926 v -4.833 c 0,-0.511 0.415,-0.925 0.924,-0.925 0.509,0 0.923,0.414 0.923,0.925 z m 4.595,1.397 c 0,0.513 -0.415,0.927 -0.924,0.927 -0.51,0 -0.924,-0.414 -0.924,-0.927 v -6.581 c 0,-0.509 0.415,-0.924 0.924,-0.924 0.509,0 0.924,0.415 0.924,0.924 z m 4.594,-1.397 c 0,0.512 -0.416,0.926 -0.924,0.926 -0.51,0 -0.924,-0.414 -0.924,-0.926 v -4.833 c 0,-0.511 0.414,-0.925 0.924,-0.925 0.508,0 0.924,0.414 0.924,0.925 z"
             id="path4838"
              /></g></g><g
         id="g4848"><g
           id="g4846"><path
             d="m 87.854,33.705 c -1.723,0 -3.121,3.312 -3.121,7.396 0,0.013 0.002,0.021 0.002,0.034 -0.748,0.118 -1.576,0.23 -2.451,0.339 v 25.958 c 3.602,-2.411 5.688,-5.255 5.688,-8.307 0,0 3.004,-15.327 3.004,-18.024 -0.001,-4.085 -1.4,-7.396 -3.122,-7.396 z m 0.216,7.803 c -0.334,0 -0.605,-0.776 -0.605,-1.734 0,-0.958 0.271,-1.733 0.605,-1.733 0.336,0 0.607,0.776 0.607,1.733 0,0.957 -0.271,1.734 -0.607,1.734 z"
             id="path4844"
              /></g></g><g
         id="g4854"><g
           id="g4852"><path
             d="M 20.352,68.867 V 41.75 c -1.918,-0.199 -3.635,-0.415 -5.085,-0.647 0,-0.001 0,-0.001 0,-0.001 0,-4.084 -1.398,-7.396 -3.121,-7.396 -1.723,0 -3.12,3.312 -3.12,7.396 0,3.14 3.213,18.024 3.213,18.024 0,3.679 3.037,7.06 8.113,9.741 z m -8.47,-27.359 c -0.334,0 -0.606,-0.776 -0.606,-1.734 0,-0.958 0.272,-1.733 0.606,-1.733 0.334,0 0.607,0.776 0.607,1.733 0,0.957 -0.273,1.734 -0.607,1.734 z"
             id="path4850"
              /></g></g></g></g><g
     display="none"
     id="g4864"
     style="display:none"
     transform="translate(0,-25)"><g
       display="inline"
       id="g4862"
       style="display:inline"><path
         d="M 70.002,0 H 30 c -3.684,0 -6.666,2.981 -6.666,6.667 v 86.667 c 0,3.686 2.981,6.667 6.666,6.667 h 40 c 3.685,0 6.666,-2.981 6.666,-6.667 V 6.667 C 76.668,2.981 73.687,0 70.002,0 Z M 43.229,6.042 h 13.542 c 1.211,0 2.188,0.983 2.188,2.188 0,1.211 -0.977,2.188 -2.188,2.188 H 43.229 c -1.211,0 -2.188,-0.977 -2.188,-2.188 0.001,-1.206 0.978,-2.188 2.188,-2.188 z m 6.772,87.701 c -2.982,0 -5.404,-2.422 -5.404,-5.41 0,-2.981 2.421,-5.403 5.404,-5.403 2.983,0 5.404,2.422 5.404,5.403 0,2.988 -2.422,5.41 -5.404,5.41 z M 69.663,78.334 H 30.338 v -62.5 h 39.323 v 62.5 z"
         id="path4860"
          /></g></g><g
     display="none"
     id="g4870"
     style="display:none"
     transform="translate(0,-25)"><g
       display="inline"
       id="g4868"
       style="display:inline"><path
         d="M 72.411,3.139 C 70.999,1.968 69.243,1.428 67.708,1.055 64.725,0.328 53.238,0 50.161,0 h -0.322 c -3.077,0 -14.562,0.328 -17.546,1.055 -1.536,0.373 -3.295,0.913 -4.702,2.084 -1.708,1.417 -2.573,3.5 -2.573,6.199 v 81.593 c 0,5.494 4.404,7.077 6.294,7.504 C 33.398,98.902 38.288,100 49.8,100 h 0.4 c 11.512,0 16.402,-1.098 18.489,-1.565 1.89,-0.427 6.295,-2.01 6.295,-7.504 V 9.338 C 74.983,6.64 74.118,4.556 72.411,3.139 Z m -5.869,2.478 c 1.321,0 2.392,1.067 2.392,2.395 0,1.321 -1.07,2.396 -2.392,2.396 -1.322,0 -2.394,-1.076 -2.394,-2.396 0,-1.327 1.079,-2.395 2.394,-2.395 z M 40.745,7.018 h 17.674 c 0.58,0 1.038,0.462 1.038,1.035 0,0.573 -0.458,1.035 -1.038,1.035 H 40.745 c -0.579,0 -1.038,-0.465 -1.038,-1.035 10e-4,-0.573 0.46,-1.035 1.038,-1.035 z m 13.178,87.314 c -1.001,0.241 -3.073,0.271 -3.974,0.271 -0.107,0 -0.197,-0.003 -0.265,-0.003 -0.068,0 -0.161,0.003 -0.266,0.003 -0.897,0 -2.973,-0.029 -3.975,-0.271 -1.345,-0.326 -1.762,-1.825 -1.762,-2.335 0,-0.357 0,-1.304 1.432,-1.304 h 4.41 0.322 4.41 c 1.43,0 1.43,0.946 1.43,1.304 0,0.51 -0.416,2.009 -1.762,2.335 z M 68.634,86.117 H 31.094 V 14.056 H 68.63 v 72.062 h 0.004 z"
         id="path4866"
          /></g></g><g
     display="none"
     id="g4874"
     style="display:none"
     transform="translate(0,-25)"><path
       display="inline"
       d="m 67.951,28.871 v 22.05 L 45.899,28.871 V 54.617 H 38.856 V 0 H 29.625 V 54.616 H 22.578 V 0 h -9.23 V 54.616 H 6.304 V 100 H 93.688 V 54.616 h 0.008 z m 21.63,37.091 H 75.942 v -7.239 h 13.639 z m -35.485,4.102 h 13.642 v 7.243 H 54.096 Z m -8.204,7.244 H 32.253 v -7.243 h 13.638 v 7.243 z m 8.204,-11.346 v -7.239 h 13.642 v 7.239 z m -8.204,-7.239 v 7.239 H 32.253 v -7.239 z m -21.844,0 v 7.239 H 10.411 V 58.723 Z M 10.411,70.064 h 13.638 v 7.243 H 10.411 Z m 65.531,7.244 v -7.243 h 13.639 v 7.243 z"
       id="path4872"

       style="display:inline" /></g><g
     display="none"
     id="g4882"
     style="display:none"
     transform="translate(0,-25)"><g
       display="inline"
       id="g4880"
       style="display:inline"><path
         d="M 12.962,48.147 V 100 H 87.038 V 48.147 Z M 53.704,76.751 V 88.888 H 46.295 V 76.751 c -2.202,-1.288 -3.704,-3.646 -3.704,-6.381 0,-4.087 3.313,-7.407 7.41,-7.407 4.087,0 7.407,3.32 7.407,7.407 0,2.734 -1.505,5.093 -3.704,6.381 z"
         id="path4876" /><path
         d="m 35.18,25.93 c 0.04,-3.1 -0.003,-14.815 14.813,-14.815 14.821,0 14.771,11.762 14.814,14.815 V 37.04 H 75.925 V 25.926 C 75.925,25.926 75.918,0 50,0 24.077,0 24.07,25.926 24.07,25.926 V 37.04 h 11.11 z"
         id="path4878" /></g></g></svg>
