<svg xmlns="http://www.w3.org/2000/svg" xmlns:xlink="http://www.w3.org/1999/xlink" version="1.1" x="0px" y="0px" viewBox="0 0 161.492 161.492" enable-background="new 0 0 161.492 162.732" xml:space="preserve"><g><path d="M113.265,83.74c-3.21,0-6.025,1.672-7.651,4.185l-8.559-3.88c0.204-0.71,0.35-1.44,0.35-2.214   c0-4.411-3.575-7.989-7.986-7.989c-0.532,0-1.048,0.059-1.547,0.156l-3.017-8.573c3.243-1.402,5.522-4.628,5.522-8.38   c0-5.036-4.096-9.13-9.13-9.13c-5.034,0-9.129,4.094-9.129,9.13s4.095,9.13,9.129,9.13c0.48,0,0.941-0.07,1.402-0.144l3.079,8.753   c-2.546,1.337-4.3,3.973-4.3,7.047c0,1.97,0.74,3.752,1.924,5.147l-5.562,6.302c-1.424-0.919-3.107-1.465-4.921-1.465   c-5.034,0-9.13,4.097-9.13,9.13c0,5.036,4.097,9.13,9.13,9.13c5.033,0,9.129-4.094,9.129-9.13c0-2.395-0.947-4.563-2.463-6.194   l5.512-6.242c1.255,0.821,2.753,1.31,4.37,1.31c2.825,0,5.292-1.476,6.712-3.688l8.517,3.859c-0.308,0.912-0.509,1.866-0.509,2.879   c0,5.035,4.094,9.13,9.127,9.13c5.034,0,9.131-4.095,9.131-9.13C122.396,87.834,118.299,83.74,113.265,83.74z M74.401,57.045   c0-3.777,3.072-6.846,6.847-6.846c3.775,0,6.846,3.069,6.846,6.846c0,3.774-3.07,6.847-6.846,6.847   C77.473,63.891,74.401,60.819,74.401,57.045z M72.87,107.792c-3.776,0-6.848-3.072-6.848-6.847s3.072-6.847,6.848-6.847   c3.775,0,6.846,3.072,6.846,6.847S76.646,107.792,72.87,107.792z M113.265,99.714c-3.774,0-6.846-3.069-6.846-6.846   c0-3.774,3.071-6.847,6.846-6.847s6.847,3.072,6.847,6.847C120.112,96.644,117.04,99.714,113.265,99.714z"/><path d="M114.806,69.466c5.033,0,9.131-4.094,9.131-9.13c0-5.033-4.098-9.127-9.131-9.127s-9.127,4.094-9.127,9.127   C105.679,65.372,109.773,69.466,114.806,69.466z M114.806,53.489c3.774,0,6.847,3.072,6.847,6.847c0,3.776-3.072,6.847-6.847,6.847   s-6.846-3.07-6.846-6.847C107.96,56.561,111.032,53.489,114.806,53.489z"/><path d="M105.107,119.391c-5.033,0-9.127,4.095-9.127,9.128c0,5.036,4.094,9.13,9.127,9.13c5.034,0,9.128-4.094,9.128-9.13   C114.235,123.486,110.141,119.391,105.107,119.391z M105.107,135.368c-3.774,0-6.846-3.072-6.846-6.849   c0-3.774,3.071-6.847,6.846-6.847s6.847,3.072,6.847,6.847C111.954,132.296,108.881,135.368,105.107,135.368z"/><path d="M96.548,49.781c5.034,0,9.131-4.094,9.131-9.128c0-5.036-4.097-9.13-9.131-9.13c-5.033,0-9.128,4.094-9.128,9.13   C87.42,45.686,91.515,49.781,96.548,49.781z M96.548,33.804c3.777,0,6.847,3.072,6.847,6.849c0,3.774-3.069,6.847-6.847,6.847   c-3.776,0-6.849-3.072-6.849-6.847C89.7,36.876,92.772,33.804,96.548,33.804z"/><path d="M52.9,36.657c5.033,0,9.128-4.094,9.128-9.128c0-5.036-4.095-9.13-9.128-9.13c-5.035,0-9.13,4.094-9.13,9.13   C43.77,32.563,47.866,36.657,52.9,36.657z M52.9,20.68c3.775,0,6.846,3.072,6.846,6.849c0,3.774-3.071,6.847-6.846,6.847   c-3.776,0-6.848-3.072-6.848-6.847C46.053,23.752,49.125,20.68,52.9,20.68z"/><path d="M70.874,66.042c0-5.034-4.096-9.128-9.13-9.128c-5.033,0-9.129,4.094-9.129,9.128c0,5.035,4.096,9.13,9.129,9.13   C66.778,75.172,70.874,71.077,70.874,66.042z M61.743,72.89c-3.775,0-6.846-3.072-6.846-6.849c0-3.774,3.071-6.847,6.846-6.847   c3.776,0,6.848,3.072,6.848,6.847C68.591,69.818,65.519,72.89,61.743,72.89z"/><path d="M47.194,92.573c-5.035,0-9.13,4.094-9.13,9.13s4.095,9.13,9.13,9.13c5.034,0,9.129-4.094,9.129-9.13   S52.228,92.573,47.194,92.573z M47.194,108.55c-3.775,0-6.847-3.069-6.847-6.847c0-3.776,3.072-6.847,6.847-6.847   c3.774,0,6.847,3.07,6.847,6.847C54.041,105.48,50.969,108.55,47.194,108.55z"/></g></svg>
