<svg xmlns="http://www.w3.org/2000/svg" xmlns:xlink="http://www.w3.org/1999/xlink" version="1.1" x="0px" y="0px" viewBox="0 0 161.492 161.492" enable-background="new 0 0 161.492 162.732" xml:space="preserve"><path d="M119.272,96.319c-2.219,0-4.316,0.494-6.209,1.358L91.256,66.616c6.34-3.599,10.624-10.4,10.624-18.21  c0-11.563-9.374-20.939-20.939-20.939c-11.565,0-20.94,9.376-20.94,20.939c0,7.81,4.284,14.609,10.622,18.208L48.841,97.647  c-1.856-0.823-3.904-1.287-6.061-1.287c-8.288,0-15.031,6.741-15.031,15.029c0,8.287,6.743,15.027,15.031,15.027  c8.287,0,15.028-6.74,15.028-15.027c0-3.939-1.536-7.521-4.026-10.204l22.69-32.327c0.47,0.103,0.948,0.175,1.429,0.243v34.993  c-7.117,1.417-12.499,7.708-12.499,15.233c0,8.57,6.97,15.539,15.538,15.539s15.536-6.969,15.536-15.539  c0-7.525-5.379-13.816-12.497-15.233V69.101c0.48-0.068,0.961-0.14,1.427-0.243l22.747,32.408c-2.424,2.671-3.913,6.2-3.913,10.08  c0,8.288,6.743,15.031,15.031,15.031s15.028-6.743,15.028-15.031C134.3,103.061,127.56,96.319,119.272,96.319z M42.781,124.391  c-7.171,0-13.004-5.833-13.004-13.002c0-7.17,5.833-13.004,13.004-13.004c7.17,0,13.003,5.834,13.003,13.004  C55.784,118.558,49.951,124.391,42.781,124.391z M94.452,119.327c0,7.451-6.062,13.514-13.511,13.514  c-7.45,0-13.511-6.063-13.511-13.514c0-7.448,6.061-13.511,13.511-13.511C88.39,105.816,94.452,111.879,94.452,119.327z   M119.272,124.35c-7.172,0-13.006-5.834-13.006-13.004c0-7.169,5.834-13.002,13.006-13.002c7.169,0,13,5.833,13,13.002  C132.272,118.516,126.441,124.35,119.272,124.35z"/></svg>
