<svg xmlns="http://www.w3.org/2000/svg" xmlns:xlink="http://www.w3.org/1999/xlink" version="1.1" x="0px" y="0px" viewBox="0 0 161.492 161.492" enable-background="new 0 0 161.492 162.732" xml:space="preserve"><g><path d="M113.568,124.833c-2.299,0-4.382,0.868-6.016,2.251c-0.113-0.116-23.03-13.385-23.03-13.385v-8.777   c3.749-0.854,6.548-4.19,6.548-8.195c0-4.651-3.767-8.421-8.419-8.421c-4.648,0-8.42,3.77-8.42,8.421   c0,4.005,2.803,7.342,6.549,8.195v8.811c0,0-22.874,13.242-22.993,13.366c-1.639-1.414-3.746-2.3-6.076-2.3   c-5.156,0-9.355,4.197-9.355,9.355s4.199,9.355,9.355,9.355c5.16,0,9.356-4.197,9.356-9.355c0-1.5-0.388-2.9-1.02-4.159   l20.732-11.944c0,0,0.031,12.158,0.037,12.221c-4.281,0.856-7.521,4.641-7.521,9.171c0,5.158,4.199,9.355,9.355,9.355   c5.16,0,9.354-4.197,9.354-9.355c0-4.53-3.237-8.314-7.52-9.171c0.007-0.063,0.036-12.254,0.036-12.254l20.742,11.952   c-0.65,1.273-1.053,2.693-1.053,4.219c0,5.159,4.199,9.355,9.356,9.355c5.16,0,9.355-4.196,9.355-9.355   C122.923,129.03,118.728,124.833,113.568,124.833z M51.711,141.638c-4.126,0-7.484-3.356-7.484-7.484s3.358-7.484,7.484-7.484   c4.128,0,7.485,3.356,7.485,7.484S55.839,141.638,51.711,141.638z M90.134,139.442c0,4.128-3.355,7.484-7.483,7.484   c-4.126,0-7.484-3.356-7.484-7.484c0-4.122,3.349-7.472,7.466-7.482c0.008,0,0.014,0.003,0.019,0.003   c0.007,0,0.013-0.003,0.019-0.003C86.788,131.97,90.134,135.32,90.134,139.442z M113.568,141.673c-4.126,0-7.485-3.356-7.485-7.484   c0-4.127,3.359-7.484,7.485-7.484c4.129,0,7.484,3.357,7.484,7.484C121.052,138.316,117.697,141.673,113.568,141.673z"/><path d="M47.122,81.713l5.789,3.432c-0.65,1.274-1.052,2.693-1.052,4.22c0,5.158,4.199,9.355,9.355,9.355   c5.16,0,9.355-4.197,9.355-9.355s-4.195-9.355-9.355-9.355c-2.3,0-4.382,0.867-6.015,2.251c-0.114-0.117-6.136-3.684-6.136-3.684   v-8.68c4.342-0.81,7.64-4.61,7.64-9.183c0-1.5-0.387-2.899-1.02-4.158L76.415,44.61c0,0,0.031,12.159,0.037,12.221   c-4.281,0.857-7.521,4.642-7.521,9.171c0,5.159,4.199,9.356,9.355,9.356c5.16,0,9.355-4.197,9.355-9.356   c0-4.529-3.237-8.313-7.521-9.171c0.007-0.062,0.037-12.253,0.037-12.253l20.744,11.953c-0.65,1.273-1.053,2.693-1.053,4.219   c0,5.158,4.199,9.355,9.355,9.355c5.16,0,9.356-4.197,9.356-9.355s-4.196-9.355-9.356-9.355c-2.302,0-4.382,0.868-6.015,2.251   c-0.113-0.117-23.032-13.385-23.032-13.385v-8.778c3.747-0.853,6.549-4.19,6.549-8.195c0-4.65-3.768-8.42-8.42-8.42   c-4.648,0-8.42,3.77-8.42,8.42c0,4.005,2.803,7.342,6.549,8.195v8.811c0,0-22.874,13.243-22.993,13.367   c-1.639-1.414-3.746-2.301-6.076-2.301c-5.156,0-9.355,4.197-9.355,9.355c0,4.461,3.145,8.19,7.329,9.12v8.774   c0,0-6.33,3.646-6.448,3.77c-1.639-1.414-3.746-2.3-6.076-2.3c-5.157,0-9.356,4.197-9.356,9.355s4.199,9.355,9.356,9.355   c5.16,0,9.355-4.197,9.355-9.355c0-1.5-0.387-2.9-1.02-4.159L47.122,81.713z M61.213,81.88c4.128,0,7.484,3.356,7.484,7.484   s-3.356,7.484-7.484,7.484c-4.126,0-7.484-3.356-7.484-7.484S57.087,81.88,61.213,81.88z M109.204,53.264   c4.126,0,7.484,3.356,7.484,7.484s-3.358,7.484-7.484,7.484s-7.484-3.356-7.484-7.484S105.078,53.264,109.204,53.264z    M78.286,58.523c0.007,0,0.013-0.004,0.018-0.004c4.119,0.011,7.466,3.36,7.466,7.482c0,4.128-3.356,7.485-7.484,7.485   c-4.126,0-7.484-3.357-7.484-7.485c0-4.122,3.349-7.472,7.466-7.482C78.275,58.519,78.28,58.523,78.286,58.523z M39.862,60.714   c0-4.127,3.358-7.484,7.484-7.484c4.128,0,7.484,3.357,7.484,7.484c0,4.128-3.356,7.485-7.484,7.485   C43.22,68.199,39.862,64.842,39.862,60.714z M32.796,96.918c-4.126,0-7.485-3.356-7.485-7.484s3.359-7.484,7.485-7.484   c4.127,0,7.484,3.356,7.484,7.484S36.923,96.918,32.796,96.918z"/><path d="M131.614,99.491c-2.299,0-4.382,0.867-6.016,2.251c-0.113-0.117-6.136-3.684-6.136-3.684V89.28   c3.749-0.854,6.549-4.19,6.549-8.195c0-4.65-3.768-8.42-8.42-8.42c-4.648,0-8.42,3.77-8.42,8.42c0,4.005,2.803,7.342,6.549,8.195   v8.811c0,0-6.33,3.646-6.447,3.77c-1.641-1.414-3.745-2.3-6.077-2.3c-5.156,0-9.355,4.197-9.355,9.355s4.199,9.355,9.355,9.355   c5.16,0,9.355-4.197,9.355-9.355c0-1.5-0.387-2.9-1.02-4.159l5.99-3.562l5.788,3.432c-0.65,1.273-1.052,2.693-1.052,4.22   c0,5.158,4.198,9.355,9.355,9.355c5.16,0,9.355-4.197,9.355-9.355S136.774,99.491,131.614,99.491z M103.196,116.4   c-4.126,0-7.484-3.356-7.484-7.484s3.358-7.484,7.484-7.484c4.13,0,7.484,3.356,7.484,7.484S107.326,116.4,103.196,116.4z    M131.614,116.331c-4.126,0-7.484-3.356-7.484-7.484s3.358-7.484,7.484-7.484c4.13,0,7.484,3.356,7.484,7.484   S135.744,116.331,131.614,116.331z"/></g></svg>
