<svg xmlns:dc="http://purl.org/dc/elements/1.1/" xmlns:cc="http://creativecommons.org/ns#" xmlns:rdf="http://www.w3.org/1999/02/22-rdf-syntax-ns#" xmlns:svg="http://www.w3.org/2000/svg" xmlns="http://www.w3.org/2000/svg" xmlns:sodipodi="http://sodipodi.sourceforge.net/DTD/sodipodi-0.dtd" xmlns:inkscape="http://www.inkscape.org/namespaces/inkscape" viewBox="0 0 1000.0001 1251.5625" version="1.1" x="0px" y="0px"><g transform="translate(-849.2854,-44.326486)"><path style="" d="m 849.2854,544.95149 0,-500.625004 25,0 25,0 0,475.625004 0,475.625 475,0 475,0 0,25.00001 0,25 -500,0 -500,0 0,-500.62501 z m 286.875,350.76245 c -19.5653,-9.02996 -18.998,-37.38285 0.9144,-45.70279 8.7663,-3.66277 20.0994,-1.69856 27.0459,4.6875 9.8574,9.06203 9.8574,27.69365 0,36.75568 -7.2037,6.6225 -18.96,8.41351 -27.9603,4.25961 z m 115,-55 c -19.5653,-9.02996 -18.998,-37.38285 0.9144,-45.70279 8.7663,-3.66277 20.0994,-1.69856 27.0459,4.6875 9.8574,9.06203 9.8574,27.69365 0,36.75568 -7.2037,6.6225 -18.96,8.41351 -27.9603,4.25961 z m 285,0 c -19.5653,-9.02996 -18.998,-37.38285 0.9144,-45.70279 8.7663,-3.66277 20.0994,-1.69856 27.0459,4.6875 9.8574,9.06203 9.8574,27.69365 0,36.75568 -7.2037,6.6225 -18.96,8.41351 -27.9603,4.25961 z m -155,-24.71449 c -19.1618,-10.10186 -19.3662,-35.79881 -0.3623,-45.54461 9.0898,-4.66154 22.4116,-2.24434 29.2786,5.3125 11.5328,12.69149 7.9845,32.09041 -7.304,39.9308 -5.6948,2.92049 -16.362,3.0692 -21.6123,0.30131 z m -387.5,-25.28551 c -19.56527,-9.02996 -18.998,-37.38285 0.91442,-45.70279 8.76628,-3.66277 20.09938,-1.69856 27.04588,4.6875 9.8574,9.06203 9.8574,27.69365 0,36.75568 -7.2037,6.6225 -18.96,8.41351 -27.9603,4.25961 z m 277.5,-72.5 c -19.5653,-9.02996 -18.998,-37.38285 0.9144,-45.70279 8.7663,-3.66277 20.0994,-1.69856 27.0459,4.6875 9.8574,9.06203 9.8574,27.69365 0,36.75568 -7.2037,6.6225 -18.96,8.41351 -27.9603,4.25961 z m 237.5,-17.5 c -19.5653,-9.02996 -18.998,-37.38285 0.9144,-45.70279 8.7663,-3.66277 20.0994,-1.69856 27.0459,4.6875 9.8574,9.06203 9.8574,27.69365 0,36.75568 -7.2037,6.6225 -18.96,8.41351 -27.9603,4.25961 z m -505,-47.5 c -19.56527,-9.02996 -18.998,-37.38285 0.9144,-45.70279 8.7663,-3.66277 20.0994,-1.69856 27.0459,4.6875 9.8574,9.06203 9.8574,27.69365 0,36.75568 -7.2037,6.6225 -18.96,8.41351 -27.9603,4.25961 z m 377.5,-22.5 c -19.5653,-9.02996 -18.998,-37.38285 0.9144,-45.70279 8.7663,-3.66277 20.0994,-1.69856 27.0459,4.6875 9.8574,9.06203 9.8574,27.69365 0,36.75568 -7.2037,6.6225 -18.96,8.41351 -27.9603,4.25961 z m -157.5,-47.5 c -19.5653,-9.02996 -18.998,-37.38285 0.9144,-45.70279 8.7663,-3.66277 20.0994,-1.69856 27.0459,4.6875 9.8574,9.06203 9.8574,27.69365 0,36.75568 -7.2037,6.6225 -18.96,8.41351 -27.9603,4.25961 z m 377.5,0 c -19.5653,-9.02996 -18.998,-37.38285 0.9144,-45.70279 8.7663,-3.66277 20.0994,-1.69856 27.0459,4.6875 9.8574,9.06203 9.8574,27.69365 0,36.75568 -7.2037,6.6225 -18.96,8.41351 -27.9603,4.25961 z m 145,-87.5 c -19.5653,-9.02996 -18.998,-37.38285 0.9144,-45.70279 8.7663,-3.66277 20.0994,-1.69856 27.0459,4.6875 9.8574,9.06203 9.8574,27.69365 0,36.75568 -7.2037,6.6225 -18.96,8.41351 -27.9603,4.25961 z m -210,-5 c -19.5653,-9.02996 -18.998,-37.38285 0.9144,-45.70279 8.7663,-3.66277 20.0994,-1.69856 27.0459,4.6875 9.8574,9.06203 9.8574,27.69365 0,36.75568 -7.2037,6.6225 -18.96,8.41351 -27.9603,4.25961 z m -507.5,-20 c -19.5653,-9.02996 -18.998,-37.38285 0.9144,-45.70279 8.7663,-3.66277 20.0994,-1.69856 27.0459,4.6875 9.8574,9.06203 9.8574,27.69365 0,36.75568 -7.2037,6.6225 -18.96,8.41351 -27.9603,4.25961 z m 212.5,-2.5 c -19.5653,-9.02996 -18.998,-37.38285 0.9144,-45.70279 8.7663,-3.66277 20.0994,-1.69856 27.0459,4.6875 9.8574,9.06203 9.8574,27.69365 0,36.75568 -7.2037,6.6225 -18.96,8.41351 -27.9603,4.25961 z m 140,-47.5 c -19.5653,-9.02996 -18.998,-37.38285 0.9144,-45.70279 8.7663,-3.66277 20.0994,-1.69856 27.0459,4.6875 9.8574,9.06203 9.8574,27.69365 0,36.75568 -7.2037,6.6225 -18.96,8.41351 -27.9603,4.25961 z m 287.5,-25 c -19.5653,-9.02996 -18.998,-37.38285 0.9144,-45.70279 8.7663,-3.66277 20.0994,-1.69856 27.0459,4.6875 9.8574,9.06203 9.8574,27.69365 0,36.75568 -7.2037,6.6225 -18.96,8.41351 -27.9603,4.25961 z m -460,-75 c -19.5653,-9.02996 -18.998,-37.38285 0.9144,-45.70279 8.7663,-3.66277 20.0994,-1.69856 27.0459,4.6875 9.8574,9.06203 9.8574,27.69365 0,36.75568 -7.2037,6.6225 -18.96,8.41351 -27.9603,4.25961 z m 172.5,-15.96449 c -9.2832,-4.89396 -14.375,-13.01795 -14.375,-22.93524 0,-14.11647 10.8766,-24.98772 25,-24.98772 22.0094,0 33.2052,25.8969 18.2913,42.30915 -6.6114,7.27564 -20.6092,9.99318 -28.9163,5.61381 z m 370,-9.03551 c -19.5653,-9.02996 -18.998,-37.38285 0.9144,-45.70279 8.7663,-3.66277 20.0994,-1.69856 27.0459,4.6875 9.8574,9.06203 9.8574,27.69365 0,36.75568 -7.2037,6.6225 -18.96,8.41351 -27.9603,4.25961 z m -180,-60 c -19.5653,-9.02996 -18.998,-37.38285 0.9144,-45.70279 8.7663,-3.66277 20.0994,-1.69856 27.0459,4.6875 9.8574,9.06203 9.8574,27.69365 0,36.75568 -7.2037,6.6225 -18.96,8.41351 -27.9603,4.25961 z m 125,-32.5 c -19.5653,-9.02996 -18.998,-37.38285 0.9144,-45.70279 8.7663,-3.66277 20.0994,-1.69856 27.0459,4.6875 9.8574,9.06203 9.8574,27.69365 0,36.75568 -7.2037,6.6225 -18.96,8.41351 -27.9603,4.25961 z" fill="#000000"/></g><text x="0" y="1016.25" fill="#000000" font-size="5px" font-weight="bold" font-family="'Helvetica Neue', Helvetica, Arial-Unicode, Arial, Sans-serif">Created by JeraOcean</text><text x="0" y="1021.25" fill="#000000" font-size="5px" font-weight="bold" font-family="'Helvetica Neue', Helvetica, Arial-Unicode, Arial, Sans-serif">from the Noun Project</text></svg>