<svg id="logos" xmlns="http://www.w3.org/2000/svg" viewBox="0 0 362.62 513.93"><defs><style>.cls-1{fill:#0053b7;}.cls-2{fill:#028dd3;}.cls-3{fill:#70defc;}</style></defs><path class="cls-1" d="M237,381.61c-89.12,0-161.36-32.24-161.36-72,0-27.11,33.6-50.73,83.23-63C68.78,252.6,0,284.42,0,322.78,0,365.43,85,400,189.84,400c76.75,0,142.86-18.53,172.78-45.18C333,371.15,287.78,381.61,237,381.61Z"/><circle class="cls-2" cx="216.45" cy="33.69" r="33.69"/><path class="cls-3" d="M306.67,304c-.2-18.23-56.7-23.77-65.55-136.58-4.4-56.1-6.63-64.34-7.35-65.38h0c-2.69-5.38-9.33-9.2-17.13-9.2s-14.43,3.82-17.13,9.2h0c-.73,1-2.95,9.28-7.35,65.38C183.28,280.19,126.61,285.73,126.42,304h0c1.05,19.89,41,35.89,90.16,35.89s89-16,90.05-35.89Z"/><path class="cls-2" d="M284,278.29C192.59,250.55,197.8,109.6,197.8,109.6c-1.63,9.27-4.37,39.68-5.79,57.78C183.16,280.19,126.5,285.73,126.3,304h0c1,19.89,41,35.89,90.16,35.89s89.12-16,90.17-35.89h0c-.06-5.2-4.38-9.24-11.2-15.16"/><path class="cls-1" d="M301.09,315.92c-116.47,7.66-106.8-174.71-106.8-175.1-.67,7.42-1.51,16.15-2.34,26.66-8.85,112.8-65.51,118.34-65.71,136.58h0c1,19.89,41,35.89,90.16,35.89,38.88,0,72-10,84.67-24"/><path class="cls-2" d="M148.88,450.44c0-4,2.4-6.34,6.66-6.34s6.56,2.31,6.56,6.34-2.31,6.43-6.56,6.43S148.88,454.47,148.88,450.44ZM160.44,513h-9.89v-48h9.89Z"/><path class="cls-2" d="M169.68,503.85l6.66-6c2.4,5.76,7.85,8,14.32,8s9.89-2.49,9.89-5.76c0-3-2.68-4.71-10.72-6.34-13.77-2.69-18.58-6.82-18.58-14.89,0-7.78,7-14.89,19.41-14.89,10.26,0,16.09,3.46,19.42,10.86l-7,5.38c-2.31-5.77-6.29-8.17-12.29-8.17-5.73,0-9.62,2.88-9.62,5.86,0,3.46,2.68,5.28,11.37,6.92,13.22,2.49,17.94,6.62,17.94,14.6,0,8.45-7.4,14.5-20.16,14.5C181.33,513.93,173.56,510.86,169.68,503.85Z"/><path class="cls-2" d="M229.77,499c0,4.7,1.11,6.34,4.8,6.34a14.21,14.21,0,0,0,6.11-1.25l-1.11,8.26a17.9,17.9,0,0,1-7.68,1.63c-8.22,0-12-4.22-12-13.54V443.33h9.89Z"/><path class="cls-2" d="M287.64,492.8H253.8c1.11,8.45,5.92,13,13.41,13,6.1,0,10.17-2.31,11.64-6.53l8.23,3.55c-3.33,7.11-9.7,11.14-19.87,11.14-14.61,0-23.2-9.32-23.2-25s8.13-25,22.55-25c13.87,0,21.45,9.61,21.45,23.54A42.34,42.34,0,0,1,287.64,492.8Zm-33.74-7.88h24.86c-.92-8.07-5.27-12.77-12.2-12.77C259.26,472.15,254.91,476.66,253.9,484.92Z"/></svg>