<svg xmlns="http://www.w3.org/2000/svg" viewBox="0 0 66 66" x="0px" y="0px"><path fill="#000000" d="M451.815476,322.764353 L461.049414,314.264262 C461.234021,314.094326 461.475766,314 461.72668,314 L482,314 C482.552285,314 483,314.447715 483,315 C483,315.552285 482.552285,316 482,316 L462.11687,316 L453.106502,324.294289 C459.689992,332.292852 463,339.518759 463,346 L463,348 C463,356.284271 456.284271,363 448,363 L432,363 C423.715729,363 417,356.284271 417,348 L417,346 C417,338.037492 422.142958,328.80634 432.359683,318.246823 C430.9429,317.36412 430,315.792173 430,314 C430,312.08014 431.082043,310.413006 432.669553,309.575173 L427.105573,298.447214 C426.773122,297.782313 427.256618,297 428,297 L452,297 C452.743382,297 453.226878,297.782313 452.894427,298.447214 L447.330447,309.575173 C448.917957,310.413006 450,312.08014 450,314 C450,315.789535 449.059874,317.359491 447.646571,318.24292 C449.14553,319.776096 450.535239,321.283183 451.815476,322.764353 Z M441.404181,332.348233 L450.343223,324.119602 C448.903633,322.451581 447.317601,320.744956 445.58477,319 L434.41851,319 C424.115009,329.491348 419,338.51249 419,346 L419,348 C419,355.179702 424.820298,361 432,361 L448,361 C455.179702,361 461,355.179702 461,348 L461,346 C461,340.067057 457.889445,333.274944 451.632669,325.650992 L442.758848,333.819586 C442.914062,334.181878 443,334.580903 443,335 C443,336.656854 441.656854,338 440,338 C438.343146,338 437,336.656854 437,335 C437,333.343146 438.343146,332 440,332 C440.507324,332 440.985235,332.125929 441.404181,332.348233 Z M429.618034,299 L434.618034,309 L445.381966,309 L450.381966,299 L429.618034,299 Z M435,311 C433.343146,311 432,312.343146 432,314 C432,315.656854 433.343146,317 435,317 L445,317 C446.656854,317 448,315.656854 448,314 C448,312.343146 446.656854,311 445,311 L435,311 Z M467,325 C466.447715,325 466,324.552285 466,324 C466,323.447715 466.447715,323 467,323 L482,323 C482.552285,323 483,323.447715 483,324 C483,324.552285 482.552285,325 482,325 L467,325 Z M467,334 C466.447715,334 466,333.552285 466,333 C466,332.447715 466.447715,332 467,332 L482,332 C482.552285,332 483,332.447715 483,333 C483,333.552285 482.552285,334 482,334 L467,334 Z" transform="translate(-417 -297)"/></svg>
