<svg xmlns="http://www.w3.org/2000/svg" xmlns:xlink="http://www.w3.org/1999/xlink" version="1.1" x="0px" y="0px" viewBox="0 0 161.492 161.492" enable-background="new 0 0 161.492 162.732" xml:space="preserve"><path d="M127.668,112.499c-2.905,0-5.54,1.105-7.583,2.873c-0.15-0.155-8.054-4.707-8.054-4.707V99.71  c5.227-1.163,9.152-5.819,9.152-11.39c0-6.439-5.243-11.683-11.682-11.683c-2.91,0-5.538,1.109-7.589,2.875  c-0.147-0.157-28.708-16.69-28.708-16.69V51.819c4.678-1.063,8.176-5.23,8.176-10.233c0-5.805-4.708-10.512-10.512-10.512  c-5.811,0-10.514,4.707-10.514,10.512c0,5.002,3.497,9.169,8.177,10.233v10.962c0,0-28.615,16.565-28.756,16.714  c-2.041-1.729-4.64-2.812-7.511-2.812c-6.443,0-11.682,5.24-11.682,11.682c0,6.441,5.239,11.682,11.682,11.682  c6.438,0,11.681-5.24,11.681-11.682c0-1.905-0.502-3.68-1.313-5.269l25.9-14.924c0,0,0.037,15.222,0.046,15.299  c-0.081,0.017-9.855,0.071-9.855,0.071v23.945h23.948V83.543c0,0-9.433-0.055-9.511-0.071c0.006-0.077,0.045-15.257,0.045-15.257  l25.887,14.914c-0.79,1.574-1.272,3.318-1.272,5.192c0,5.709,4.119,10.454,9.535,11.466v10.837c0,0-7.518,4.453-7.659,4.602  c-2.04-1.729-4.64-2.812-7.511-2.812c-6.444,0-11.68,5.239-11.68,11.682c0,6.441,5.236,11.682,11.68,11.682  c6.438,0,11.682-5.24,11.682-11.682c0-1.905-0.502-3.679-1.313-5.269l7.229-4.283l7.479,4.447c-0.79,1.57-1.275,3.318-1.275,5.19  c0,6.442,5.24,11.683,11.683,11.683c6.438,0,11.681-5.24,11.681-11.683C139.349,117.739,134.106,112.499,127.668,112.499z   M32.266,97.711c-5.155,0-9.347-4.192-9.347-9.346c0-5.154,4.191-9.346,9.347-9.346c5.151,0,9.344,4.192,9.344,9.346  C41.61,93.518,37.417,97.711,32.266,97.711z M109.502,97.666c-5.153,0-9.347-4.189-9.347-9.346c0-5.154,4.193-9.343,9.347-9.343  c5.15,0,9.344,4.189,9.344,9.343C118.846,93.476,114.653,97.666,109.502,97.666z"/></svg>
