<svg xmlns:rdf="http://www.w3.org/1999/02/22-rdf-syntax-ns#" xmlns="http://www.w3.org/2000/svg" xmlns:cc="http://creativecommons.org/ns#" xmlns:dc="http://purl.org/dc/elements/1.1/" version="1.1" viewBox="0 0 100 125" x="0px" y="0px"><path style="baseline-shift:baseline;block-progression:tb;color:#000000;direction:ltr;text-indent:0;enable-background:accumulate;text-transform:none;" fill="#000" d="M49.406,5.125c-14.442,0.198-28.538,7.289-37.031,20.219-13.59,20.688-7.813,48.66,12.875,62.25,20.623,13.546,48.488,7.841,62.125-12.688l6.156,4.032,0.719-14,0.75-14.063-12.5,6.375-12.531,6.375,6.625,4.313c-9.844,14.651-29.492,18.652-44.282,8.937-14.886-9.778-18.997-29.583-9.218-44.469,9.778-14.886,29.582-18.997,44.468-9.218,3.669,2.409,6.81,5.549,9.219,9.218l10.719-7.062c-3.372-5.137-7.739-9.502-12.875-12.875-7.758-5.0963-16.554-7.4628-25.219-7.344zm-4.468,19.906v20h-20v10h20v20h10v-20h20v-10h-20v-20h-10z"/><text x="0" y="115" fill="#000000" font-size="5px" font-weight="bold" font-family="'Helvetica Neue', Helvetica, Arial-Unicode, Arial, Sans-serif">Created by Richard Slater</text><text x="0" y="120" fill="#000000" font-size="5px" font-weight="bold" font-family="'Helvetica Neue', Helvetica, Arial-Unicode, Arial, Sans-serif">from the Noun Project</text></svg>