<svg xmlns="http://www.w3.org/2000/svg" xmlns:xlink="http://www.w3.org/1999/xlink" version="1.1" x="0px" y="0px" viewBox="0 0 48 48" style="enable-background:new 0 0 48 48;" xml:space="preserve"><path d="M39.1865234,35.9804688c-0.5087891,0-0.9824219,0.1318359-1.4091797,0.3457031L26.046875,24.6113281l6.0732422-1.2255859  c0.5478516,0.9477539,1.5615234,1.5947266,2.7324219,1.5947266c1.7460938,0,3.1669922-1.4208984,3.1669922-3.1669922  s-1.4208984-3.1669922-3.1669922-3.1669922c-1.6123047,0-2.9335938,1.2167969-3.1279297,2.777832l-6.0361328,1.2182617  l4.5751953-10.6879883c0.0859375,0.0068359,0.1689453,0.0258789,0.2568359,0.0258789  c1.7460938,0,3.1669922-1.4208984,3.1669922-3.1669922s-1.4208984-3.1669922-3.1669922-3.1669922  s-3.1669922,1.4208984-3.1669922,3.1669922c0,0.9394531,0.4189453,1.7753906,1.0712891,2.355957l-4.5537109,10.6362305  l-3.9575195-6.6074219C20.3891602,14.644043,20.6875,13.9331055,20.6875,13.1474609  c0-1.7460938-1.4208984-3.1669922-3.1669922-3.1669922s-3.1669922,1.4208984-3.1669922,3.1669922  s1.4208984,3.1669922,3.1669922,3.1669922c0.2353516,0,0.4628906-0.0297852,0.6831055-0.0786133l3.3681641,5.6235352  l-9.5786133-4.1171875c0.0073242-0.0874023,0.0263672-0.1713867,0.0263672-0.2607422  c0-1.7460938-1.4208984-3.1669922-3.1669922-3.1669922s-3.1669922,1.4208984-3.1669922,3.1669922  s1.4208984,3.1669922,3.1669922,3.1669922c0.9375,0,1.7724609-0.4174805,2.3525391-1.0673828l10.6220703,4.5654297  l-6.5893555,3.9423828c-0.5541992-0.4755859-1.2651367-0.7744141-2.0512695-0.7744141  c-1.7460938,0-3.1669922,1.4208984-3.1669922,3.1669922s1.4208984,3.1669922,3.1669922,3.1669922  s3.1669922-1.4208984,3.1669922-3.1669922c0-0.234375-0.0297852-0.4619141-0.078125-0.6816406l6.4570312-3.8642578  l-1.4453125,10.1025391c-1.4765625,0.2675781-2.6015625,1.5566406-2.6015625,3.109375  c0,1.7460938,1.4208984,3.1669922,3.1669922,3.1669922s3.1669922-1.4208984,3.1669922-3.1669922  c0-1.2363281-0.71875-2.2978516-1.7539062-2.8193359l1.4609375-10.2089844l11.6367188,11.6230469  c-0.2128906,0.4248047-0.34375,0.8984375-0.34375,1.4052734c0,1.7460938,1.4208984,3.1669922,3.1669922,3.1669922  s3.1669922-1.4208984,3.1669922-3.1669922S40.9326172,35.9804688,39.1865234,35.9804688z M30.5205078,7.6464844  c0.6435547,0,1.1669922,0.5234375,1.1669922,1.1669922s-0.5234375,1.1669922-1.1669922,1.1669922  s-1.1669922-0.5234375-1.1669922-1.1669922S29.8769531,7.6464844,30.5205078,7.6464844z M8.8525391,18.6484375  c-0.6435547,0-1.1669922-0.5234375-1.1669922-1.1669922s0.5234375-1.1669922,1.1669922-1.1669922  s1.1669922,0.5234375,1.1669922,1.1669922S9.4960938,18.6484375,8.8525391,18.6484375z M34.8525391,20.6464844  c0.6435547,0,1.1669922,0.5234375,1.1669922,1.1669922s-0.5234375,1.1669922-1.1669922,1.1669922  s-1.1669922-0.5234375-1.1669922-1.1669922S34.2089844,20.6464844,34.8525391,20.6464844z M16.3535156,13.1474609  c0-0.6435547,0.5234375-1.1669922,1.1669922-1.1669922S18.6875,12.5039062,18.6875,13.1474609  s-0.5234375,1.1669922-1.1669922,1.1669922S16.3535156,13.7910156,16.3535156,13.1474609z M13.1865234,31.6484375  c-0.6435547,0-1.1669922-0.5234375-1.1669922-1.1669922s0.5234375-1.1669922,1.1669922-1.1669922  s1.1669922,0.5234375,1.1669922,1.1669922S13.8300781,31.6484375,13.1865234,31.6484375z M21.8525391,40.3144531  c-0.6435547,0-1.1669922-0.5234375-1.1669922-1.1669922s0.5234375-1.1669922,1.1669922-1.1669922  s1.1669922,0.5234375,1.1669922,1.1669922S22.4960938,40.3144531,21.8525391,40.3144531z M39.1865234,40.3144531  c-0.6435547,0-1.1669922-0.5234375-1.1669922-1.1669922s0.5234375-1.1669922,1.1669922-1.1669922  s1.1669922,0.5234375,1.1669922,1.1669922S39.8300781,40.3144531,39.1865234,40.3144531z"/></svg>
