<svg xmlns="http://www.w3.org/2000/svg" xmlns:xlink="http://www.w3.org/1999/xlink" version="1.1" x="0px" y="0px" viewBox="0 0 100 100" enable-background="new 0 0 100 100" xml:space="preserve"><path d="M93.289,33.664c0-16.253-19.703-29.429-44.007-29.429S5.275,17.411,5.275,33.664c0,14.166,14.969,25.991,34.906,28.795  c1.508,0.915,3.29,1.758,5.124,2.484c-1.466,1.488-2.868,3.223-4.124,5.258c-7.629,12.356-3.172,24.607-2.978,25.122  c0.528,1.409,2.1,2.148,3.512,1.651c1.411-0.496,2.127-2.039,1.598-3.446c-0.038-0.102-3.74-10.275,2.538-20.443  c1.62-2.624,3.53-4.649,5.475-6.216c1.75,0.424,3.287,0.662,4.357,0.662c3.968,0,7.327-2.594,8.483-6.178  C81.143,57.273,93.289,46.422,93.289,33.664z M49.448,61.445c-1.902-0.806-3.568-1.895-3.568-2.973c0-2.097,6.305-3.348,8.402-3.348  c1.534,0,2.848,0.914,3.447,2.224C55.401,58.098,52.442,59.356,49.448,61.445z M64.185,55.928c-1.14-3.61-4.515-6.228-8.502-6.228  c-2.518,0-7.617,0.77-12.002,2.179l-0.001-0.001c0,0-0.004,0.002-0.005,0.003c-0.341,0.11-0.677,0.223-1.008,0.341  c-1.175,0.248-3.48,0.384-7.466-0.632c0,0-0.011,0.007-0.016,0.01c-0.065-0.02-0.115-0.036-0.135-0.043  c-1.422-0.489-2.944,0.271-3.399,1.696c-0.15,0.468-0.407,1.162-0.522,1.798c-12.444-3.976-20.948-11.96-20.948-21.172  c0-13.181,17.395-23.865,38.852-23.865c21.457,0,38.852,10.685,38.852,23.865C87.885,43.919,78.346,52.424,64.185,55.928z"/></svg>
