<svg xmlns="http://www.w3.org/2000/svg" viewBox="0 0 32 32" fill="none" x="0px" y="0px"><path fill-rule="evenodd" clip-rule="evenodd" d="M16.05 5C16.1881 5 16.3 5.11193 16.3 5.25V6.325C16.3 6.46307 16.1881 6.575 16.05 6.575C15.912 6.575 15.8 6.46307 15.8 6.325V5.25C15.8 5.11193 15.912 5 16.05 5ZM16.05 8.225C16.1881 8.225 16.3 8.33693 16.3 8.475V10.625C16.3 10.7631 16.1881 10.875 16.05 10.875C15.912 10.875 15.8 10.7631 15.8 10.625V8.475C15.8 8.33693 15.912 8.225 16.05 8.225ZM16.05 12.525C16.1881 12.525 16.3 12.6369 16.3 12.775V14.925C16.3 15.0631 16.1881 15.175 16.05 15.175C15.912 15.175 15.8 15.0631 15.8 14.925V12.775C15.8 12.6369 15.912 12.525 16.05 12.525ZM16.05 16.825C16.1881 16.825 16.3 16.9369 16.3 17.075V19.225C16.3 19.3631 16.1881 19.475 16.05 19.475C15.912 19.475 15.8 19.3631 15.8 19.225V17.075C15.8 16.9369 15.912 16.825 16.05 16.825ZM16.05 21.125C16.1881 21.125 16.3 21.2369 16.3 21.375V23.525C16.3 23.6631 16.1881 23.775 16.05 23.775C15.912 23.775 15.8 23.6631 15.8 23.525V21.375C15.8 21.2369 15.912 21.125 16.05 21.125ZM16.05 25.425C16.1881 25.425 16.3 25.5369 16.3 25.675V26.75C16.3 26.8881 16.1881 27 16.05 27C15.912 27 15.8 26.8881 15.8 26.75V25.675C15.8 25.5369 15.912 25.425 16.05 25.425Z" fill="black"/><path fill-rule="evenodd" clip-rule="evenodd" d="M3 27.375C3 27.0298 3.27982 26.75 3.625 26.75H27.375C27.7202 26.75 28 27.0298 28 27.375C28 27.7202 27.7202 28 27.375 28H3.625C3.27982 28 3 27.7202 3 27.375Z" fill="black"/><path fill-rule="evenodd" clip-rule="evenodd" d="M28.236 3.42123C28.5556 3.55154 28.7091 3.91629 28.5788 4.23593L28 3.99998C28.5788 4.23593 28.5789 4.23568 28.5788 4.23593L28.577 4.24024L28.5725 4.2513L28.5552 4.29321C28.54 4.32976 28.5176 4.3833 28.4884 4.45244C28.4299 4.59069 28.3439 4.79136 28.2328 5.04318C28.0107 5.5467 27.688 6.25553 27.2848 7.0795C26.4804 8.72348 25.3471 10.8427 24.0441 12.7058C22.7618 14.5393 21.237 16.2413 19.6185 16.8996C18.7807 17.2404 17.8898 17.3123 17.0108 16.9505C16.1477 16.5951 15.3799 15.8558 14.7005 14.7421C14.0972 13.753 13.5232 13.2287 13.0182 12.99C12.5363 12.7622 12.0588 12.7661 11.5524 12.9644C11.0252 13.1708 10.4651 13.591 9.88964 14.1995C9.31837 14.8036 8.76026 15.5627 8.23087 16.4024C7.17188 18.0821 6.26162 20.0296 5.61323 21.5681C5.28999 22.3351 5.03382 22.9957 4.85871 23.4638C4.77118 23.6978 4.70398 23.8835 4.65886 24.0102C4.6363 24.0735 4.61926 24.122 4.60797 24.1544L4.59537 24.1907L4.59235 24.1995L4.59167 24.2015C4.59167 24.2015 4.59167 24.2015 4.59167 24.2015C4.48017 24.5282 4.12485 24.703 3.79818 24.5915C3.4715 24.48 3.29706 24.1248 3.40855 23.7981L4.00005 24C3.40855 23.7981 3.40846 23.7984 3.40855 23.7981L3.40998 23.7939L3.41365 23.7833L3.42759 23.7431C3.4398 23.708 3.4578 23.6568 3.48137 23.5906C3.5285 23.4583 3.59793 23.2665 3.68793 23.0259C3.86787 22.5448 4.13032 21.8681 4.46134 21.0826C5.12145 19.5163 6.06226 17.4983 7.17348 15.7357C7.7292 14.8543 8.33598 14.0231 8.98147 13.3406C9.62272 12.6626 10.3313 12.1 11.0967 11.8004C11.8828 11.4926 12.7217 11.4672 13.5524 11.8599C14.3599 12.2416 15.0944 12.9875 15.7677 14.0912C16.3649 15.0703 16.9534 15.5751 17.4867 15.7946C18.0039 16.0076 18.5492 15.9851 19.1475 15.7417C20.4014 15.2317 21.749 13.8064 23.0198 11.9893C24.27 10.2018 25.3707 8.14726 26.1621 6.5301C26.5567 5.7235 26.8724 5.02992 27.0891 4.53867C27.1974 4.29311 27.281 4.09831 27.3372 3.96543C27.3653 3.899 27.3865 3.84807 27.4007 3.81403L27.4165 3.77583L27.4203 3.76656L27.4211 3.76445C27.5514 3.44481 27.9164 3.29092 28.236 3.42123Z" fill="black"/></svg>
