<?xml version="1.0" encoding="UTF-8" standalone="no"?>
<svg
   xmlns="http://www.w3.org/2000/svg"
   version="1.1"
   x="0px"
   y="0px"
   viewBox="0 0 164 180"
   enable-background="new 0 0 164 164"
   xml:space="preserve"
   id="svg3719"
   width="164"
   height="180"><defs
     id="defs3723" /><sodipodi:namedview
     pagecolor="#ffffff"
     bordercolor="#666666"
     borderopacity="1"
     objecttolerance="10"
     gridtolerance="10"
     guidetolerance="10" /><path
     d="m 75.897176,155.35465 h -20.741 c -4.834,0 -4.84,15.963 0,15.963 h 53.854004 c 4.839,0 4.833,-15.963 0,-15.963 H 88.718176 l -0.602,-10.14 c 35.693004,-3.164 48.733004,-32.896 47.931004,-63.961003 -0.198,-7.666 -13.296,-6.779 -12.443,0.979 3.413,71.099003 -86.068004,69.681003 -83.271004,-1.358 0.251,-6.389 -11.982,-6.453 -12.232,0.46 -0.598,28.619003 13.64,60.803003 48.257,63.880003 z M 107.47818,48.083647 c -0.528,-14.312 -6.628,-23.486 -14.452004,-27.655 -6.579,-3.506 -14.45,-3.5 -21.076,-0.113 -8.071,4.127 -14.504,13.346 -15.273,27.676 l 0.005,20.069 h 50.800004 z m -9.674004,-36.613 c 10.769004,5.739 19.146004,17.829 19.826004,36.254 l 0.008,44.158 c 0,12.720003 -7.705,26.975003 -18.903004,33.302003 -9.819,5.547 -21.804,5.594 -31.748,0.326 -10.292,-5.451 -18.583,-16.519 -20.432,-33.071003 l -0.031,-44.705 c 0,-14.39 7.714,-29.763 20.808,-36.458 9.579,-4.8959999 20.965,-4.8729999 30.472,0.194 z"
     id="path3713"
     style="clip-rule:evenodd;fill-rule:evenodd" /></svg>
