<svg xmlns="http://www.w3.org/2000/svg" xmlns:xlink="http://www.w3.org/1999/xlink" version="1.1" x="0px" y="0px" viewBox="0 0 164 205" enable-background="new 0 0 164 164" xml:space="preserve"><path fill-rule="evenodd" clip-rule="evenodd" d="M75.656,148.037H54.915c-4.834,0-4.84,15.963,0,15.963h53.854  c4.839,0,4.833-15.963,0-15.963H88.477l-0.602-10.14c35.693-3.164,48.733-32.896,47.931-63.961  c-0.198-7.666-13.296-6.779-12.443,0.979c3.413,71.099-86.068,69.681-83.271-1.358c0.251-6.389-11.982-6.453-12.232,0.46  c-0.598,28.619,13.64,60.803,48.257,63.88L75.656,148.037L75.656,148.037z M107.237,40.766  c-0.528-14.312-6.628-23.486-14.452-27.655c-6.579-3.506-14.45-3.5-21.076-0.113c-8.071,4.127-14.504,13.346-15.273,27.676  l0.005,20.069h50.8L107.237,40.766L107.237,40.766z M97.563,4.153c10.769,5.739,19.146,17.829,19.826,36.254l0.008,44.158  c0,12.72-7.705,26.975-18.903,33.302c-9.819,5.547-21.804,5.594-31.748,0.326c-10.292-5.451-18.583-16.519-20.432-33.071  l-0.031-44.705c0-14.39,7.714-29.763,20.808-36.458C76.67-0.937,88.056-0.914,97.563,4.153z"/><text x="0" y="179" fill="#000000" font-size="5px" font-weight="bold" font-family="'Helvetica Neue', Helvetica, Arial-Unicode, Arial, Sans-serif">Created by Aleksandr Vector</text><text x="0" y="184" fill="#000000" font-size="5px" font-weight="bold" font-family="'Helvetica Neue', Helvetica, Arial-Unicode, Arial, Sans-serif">from the Noun Project</text></svg>