<svg xmlns="http://www.w3.org/2000/svg" xmlns:xlink="http://www.w3.org/1999/xlink" version="1.1" x="0px" y="0px" viewBox="0 0 161.492 161.492" enable-background="new 0 0 161.492 162.732" xml:space="preserve"><path d="M130.735,68.177c-3.191,0-6.078,1.203-8.338,3.125L98.363,48.78c1.73-2.292,2.796-5.11,2.796-8.197  c0-7.547-6.142-13.686-13.686-13.686c-7.544,0-13.686,6.138-13.686,13.686c0,1.363,0.262,2.658,0.636,3.901L51.472,55.064  c-2.138-3.552-5.992-5.952-10.438-5.952c-6.748,0-12.219,5.471-12.219,12.219c0,6.748,5.471,12.219,12.219,12.219  c2.277,0,4.382-0.665,6.207-1.747l7.143,9.28l-7.192,9.346c-1.813-1.068-3.901-1.721-6.158-1.721  c-6.748,0-12.219,5.471-12.219,12.219s5.471,12.219,12.219,12.219c4.476,0,8.349-2.432,10.478-6.023l22.937,10.574  c-0.39,1.27-0.66,2.59-0.66,3.984c0,7.548,6.141,13.686,13.686,13.686c7.544,0,13.686-6.138,13.686-13.686  c0-3.059-1.043-5.854-2.744-8.134l24.045-22.536c2.252,1.888,5.113,3.07,8.275,3.07c7.144,0,12.952-5.812,12.952-12.952  S137.878,68.177,130.735,68.177z M87.473,107.995c-2.612,0-5.03,0.773-7.104,2.046L66.09,91.486l9.302-4.064  c2.289,4.371,6.817,7.393,12.082,7.393c7.043,0,12.794-5.368,13.536-12.219h16.922c0.27,2.349,1.143,4.499,2.501,6.296  l-24.022,22.51C94.006,109.307,90.905,107.995,87.473,107.995z M74.317,84.692l-10.07,4.399l-6.163-8.009l6.163-8.005l10.095,4.411  c-0.325,1.166-0.554,2.372-0.554,3.641C73.788,82.369,74.007,83.55,74.317,84.692z M76.721,81.129  c0-5.929,4.824-10.752,10.752-10.752S98.225,75.2,98.225,81.129s-4.823,10.753-10.752,10.753S76.721,87.057,76.721,81.129z   M117.931,79.663h-16.922c-0.742-6.852-6.493-12.219-13.536-12.219c-5.235,0-9.741,2.99-12.043,7.321l-9.34-4.082l14.229-18.489  c2.085,1.292,4.525,2.074,7.155,2.074c3.402,0,6.479-1.294,8.876-3.357l24.028,22.521C119.048,75.217,118.195,77.343,117.931,79.663  z M87.473,29.83c5.929,0,10.752,4.823,10.752,10.752c0,5.929-4.823,10.752-10.752,10.752s-10.752-4.823-10.752-10.752  C76.721,34.654,81.544,29.83,87.473,29.83z M75.562,47.187c0.662,1.189,1.455,2.286,2.425,3.223L63.32,69.471l-10.635-4.649  c0.333-1.114,0.567-2.268,0.567-3.491c0-1.254-0.243-2.443-0.596-3.583L75.562,47.187z M49.588,70.041  c0.759-0.745,1.386-1.607,1.93-2.529l9.959,4.354l-5.243,6.813L49.588,70.041z M56.234,83.489l5.243,6.814l-9.998,4.37  c-0.545-0.911-1.179-1.759-1.933-2.491L56.234,83.489z M52.68,104.432c0.338-1.117,0.573-2.28,0.573-3.506  c0-1.252-0.243-2.435-0.593-3.569l10.661-4.66l14.712,19.119c-0.968,0.928-1.765,2.008-2.429,3.183L52.68,104.432z M87.473,132.433  c-5.929,0-10.752-4.823-10.752-10.753c0-5.929,4.824-10.752,10.752-10.752s10.752,4.823,10.752,10.752  C98.225,127.61,93.402,132.433,87.473,132.433z M130.735,92.614c-6.333,0-11.486-5.152-11.486-11.485s5.153-11.485,11.486-11.485  c6.332,0,11.485,5.152,11.485,11.485S137.067,92.614,130.735,92.614z"/></svg>
