<svg xmlns="http://www.w3.org/2000/svg" xmlns:xlink="http://www.w3.org/1999/xlink" version="1.1" x="0px" y="0px" viewBox="0 0 161.492 161.492" enable-background="new 0 0 161.492 162.732" xml:space="preserve"><g><path d="M32.551,104.356l-0.705,0.734c-0.777,0.814-0.75,2.104,0.064,2.882c0.396,0.379,0.903,0.565,1.41,0.565   c0.536,0,1.07-0.211,1.471-0.629l0.705-0.734c0.777-0.814,0.75-2.104-0.064-2.882C34.615,103.513,33.327,103.543,32.551,104.356z"/><path d="M58.542,77.22l-1.443,1.507c-0.78,0.81-0.752,2.101,0.059,2.878c0.398,0.379,0.905,0.569,1.413,0.569   c0.534,0,1.071-0.211,1.469-0.627l1.446-1.506c0.78-0.811,0.752-2.102-0.062-2.88C60.611,76.384,59.322,76.409,58.542,77.22z"/><path d="M84.527,50.086l-1.441,1.507c-0.777,0.813-0.75,2.101,0.064,2.88c0.395,0.378,0.9,0.564,1.406,0.564   c0.537,0,1.07-0.208,1.475-0.628l1.441-1.507c0.777-0.812,0.75-2.1-0.064-2.88C86.599,49.247,85.308,49.274,84.527,50.086z"/><path d="M44.097,95.248c-0.81-0.777-2.099-0.752-2.881,0.063l-1.444,1.509c-0.78,0.812-0.75,2.1,0.063,2.881   c0.394,0.377,0.901,0.565,1.407,0.565c0.535,0,1.071-0.211,1.474-0.63l1.443-1.508C44.938,97.317,44.911,96.028,44.097,95.248z"/><path d="M49.879,86.267l-1.446,1.507c-0.777,0.813-0.748,2.102,0.064,2.882c0.396,0.376,0.903,0.565,1.41,0.565   c0.534,0,1.071-0.211,1.471-0.629l1.446-1.508c0.778-0.813,0.75-2.101-0.063-2.882C51.951,85.428,50.661,85.454,49.879,86.267z"/><path d="M75.895,64.085c0.539,0,1.073-0.211,1.473-0.627l1.441-1.511c0.78-0.813,0.748-2.103-0.064-2.88   c-0.813-0.779-2.103-0.75-2.88,0.063l-1.441,1.51c-0.778,0.812-0.748,2.103,0.063,2.881C74.883,63.899,75.387,64.085,75.895,64.085   z"/><path d="M91.814,45.43c0.391,0.377,0.9,0.563,1.404,0.563c0.537,0,1.074-0.209,1.473-0.627l1.447-1.508   c0.777-0.812,0.75-2.101-0.063-2.881c-0.811-0.778-2.098-0.75-2.885,0.064l-1.441,1.507C90.972,43.361,91,44.65,91.814,45.43z"/><path d="M65.758,69.683c-0.778,0.814-0.75,2.101,0.064,2.884c0.393,0.376,0.902,0.563,1.409,0.563c0.534,0,1.069-0.21,1.471-0.627   l1.446-1.51c0.778-0.812,0.748-2.1-0.063-2.881c-0.812-0.775-2.099-0.75-2.883,0.064L65.758,69.683z"/><path d="M101.88,36.951c0.537,0,1.074-0.211,1.475-0.63l0.703-0.737c0.779-0.813,0.752-2.103-0.063-2.88   c-0.814-0.777-2.105-0.75-2.883,0.063l-0.701,0.737c-0.781,0.814-0.75,2.104,0.064,2.881   C100.873,36.762,101.376,36.951,101.88,36.951z"/><path d="M116.902,41.533c-0.811-0.776-2.102-0.75-2.883,0.063L44.752,113.92c-0.778,0.812-0.75,2.101,0.063,2.881   c0.394,0.378,0.9,0.566,1.407,0.566c0.537,0,1.071-0.212,1.474-0.63l69.268-72.324C117.744,43.601,117.716,42.313,116.902,41.533z"/><path d="M58.36,122.011l-0.705,0.734c-0.777,0.813-0.75,2.104,0.063,2.883c0.396,0.378,0.903,0.564,1.41,0.564   c0.536,0,1.071-0.212,1.471-0.628l0.705-0.736c0.778-0.813,0.75-2.104-0.063-2.881C60.424,121.169,59.135,121.197,58.36,122.011z"/><path d="M67.025,112.968l-1.446,1.507c-0.777,0.812-0.748,2.102,0.063,2.881c0.396,0.378,0.903,0.566,1.41,0.566   c0.534,0,1.071-0.212,1.471-0.63l1.446-1.508c0.777-0.812,0.75-2.101-0.064-2.881C69.096,112.127,67.807,112.153,67.025,112.968z"/><path d="M75.688,103.923l-1.446,1.507c-0.778,0.812-0.75,2.102,0.063,2.881c0.396,0.38,0.902,0.566,1.41,0.566   c0.534,0,1.071-0.212,1.471-0.63l1.446-1.508c0.777-0.811,0.748-2.101-0.063-2.88C77.757,103.084,76.47,103.108,75.688,103.923z"/><path d="M121.88,58.634c-0.809-0.778-2.096-0.751-2.879,0.063l-1.445,1.507c-0.777,0.812-0.75,2.1,0.064,2.881   c0.395,0.377,0.9,0.564,1.408,0.564c0.537,0,1.068-0.209,1.475-0.628l1.441-1.507C122.722,60.702,122.695,59.413,121.88,58.634z"/><path d="M101.673,76.786l-1.441,1.509c-0.779,0.813-0.748,2.102,0.063,2.881c0.396,0.377,0.9,0.564,1.41,0.564   c0.537,0,1.072-0.212,1.473-0.628l1.441-1.51c0.777-0.813,0.746-2.103-0.063-2.88C103.74,75.942,102.451,75.972,101.673,76.786z"/><path d="M110.335,67.742l-1.441,1.507c-0.779,0.811-0.752,2.1,0.063,2.88c0.396,0.377,0.9,0.564,1.41,0.564   c0.537,0,1.068-0.21,1.473-0.628l1.441-1.505c0.777-0.814,0.75-2.103-0.063-2.883C112.41,66.9,111.117,66.929,110.335,67.742z"/><path d="M95.892,85.767c-0.809-0.776-2.102-0.751-2.883,0.063l-1.441,1.51c-0.777,0.809-0.75,2.102,0.064,2.878   c0.391,0.38,0.9,0.567,1.41,0.567c0.531,0,1.066-0.212,1.469-0.631l1.445-1.507C96.734,87.836,96.707,86.547,95.892,85.767z"/><path d="M84.378,99.83c0.533,0,1.068-0.212,1.469-0.628l1.445-1.505c0.779-0.812,0.75-2.104-0.061-2.881   c-0.813-0.774-2.102-0.751-2.883,0.06l-1.441,1.505c-0.781,0.813-0.754,2.104,0.059,2.883C83.361,99.641,83.871,99.83,84.378,99.83   z"/><path d="M127.693,54.607c0.535,0,1.072-0.212,1.473-0.63l0.701-0.737c0.775-0.814,0.75-2.103-0.064-2.88   c-0.814-0.781-2.102-0.751-2.879,0.063l-0.705,0.737c-0.777,0.813-0.75,2.102,0.064,2.88   C126.677,54.418,127.183,54.607,127.693,54.607z"/><path d="M54.003,75.94c3.747,0,6.796-3.049,6.796-6.799c0-3.742-3.04-6.782-6.78-6.793c-0.004,0-0.012,0.004-0.016,0.004   s-0.012-0.004-0.016-0.004c-3.74,0.011-6.78,3.051-6.78,6.793C47.208,72.891,50.257,75.94,54.003,75.94z"/><path d="M60.792,58.963c3.75,0,6.796-3.049,6.796-6.796c0-3.742-3.04-6.784-6.78-6.793c-0.004,0-0.009,0.002-0.016,0.002   c-0.004,0-0.009-0.002-0.016-0.002c-3.738,0.009-6.78,3.051-6.78,6.793C53.997,55.913,57.045,58.963,60.792,58.963z"/><path d="M42.462,72.877c0-3.742-3.041-6.784-6.78-6.793c-0.002,0-0.009,0.002-0.016,0.002c-0.002,0-0.009-0.002-0.016-0.002   c-3.738,0.009-6.78,3.051-6.78,6.793c0,3.748,3.051,6.796,6.796,6.796C39.416,79.674,42.462,76.625,42.462,72.877z"/><path d="M37.704,61c3.749,0,6.796-3.049,6.796-6.796c0-3.742-3.04-6.785-6.78-6.793c-0.002,0-0.009,0.002-0.016,0.002   c-0.002,0-0.009-0.002-0.016-0.002c-3.738,0.009-6.78,3.051-6.78,6.793C30.907,57.951,33.958,61,37.704,61z"/><path d="M86.259,38.927c3.75,0,6.795-3.047,6.795-6.796c0-3.742-3.037-6.784-6.781-6.793c-0.002,0-0.008,0.005-0.014,0.005   c-0.004,0-0.01-0.005-0.018-0.005c-3.738,0.009-6.78,3.051-6.78,6.793C79.462,35.88,82.513,38.927,86.259,38.927z"/><path d="M88.296,115.328c4.309,0,7.814-3.507,7.814-7.817c0-4.245-3.414-7.717-7.643-7.81l-0.189-0.003   c-0.047,0-0.092,0-0.141,0.003h-0.014c-4.23,0.093-7.644,3.564-7.644,7.81C80.48,111.821,83.986,115.328,88.296,115.328z    M88.113,101.737l0.002,0.003l0.338-0.003c3.111,0.084,5.621,2.645,5.621,5.773c0,3.186-2.592,5.777-5.777,5.777   s-5.777-2.592-5.777-5.777C82.519,104.39,85.015,101.835,88.113,101.737z"/><path d="M87.472,118.385l-0.189-0.002c-0.047,0-0.092,0-0.139,0.002h-0.016c-4.229,0.094-7.642,3.565-7.642,7.811   c0,4.31,3.505,7.814,7.816,7.814c4.307,0,7.813-3.505,7.813-7.814C95.115,121.95,91.705,118.478,87.472,118.385z M87.302,131.973   c-3.186,0-5.779-2.593-5.779-5.778c0-3.119,2.494-5.675,5.594-5.772h0.002h0.338c3.115,0.082,5.621,2.642,5.621,5.772   C93.078,129.381,90.486,131.973,87.302,131.973z"/><path d="M102.755,108.877l-0.191-0.002c-0.051,0-0.096,0-0.143,0.002h-0.012c-4.23,0.094-7.645,3.564-7.645,7.81   c0,4.309,3.506,7.815,7.816,7.815s7.813-3.507,7.813-7.815C110.394,112.441,106.984,108.97,102.755,108.877z M102.582,122.465   c-3.188,0-5.779-2.593-5.779-5.778c0-3.118,2.496-5.674,5.598-5.771v0.002l0.336-0.002c3.115,0.081,5.621,2.643,5.621,5.771   C108.357,119.872,105.765,122.465,102.582,122.465z"/><path d="M111.582,80.695l-0.191-0.002c-0.047,0-0.092,0-0.137,0.002h-0.018c-4.229,0.093-7.641,3.565-7.641,7.81   c0,4.311,3.502,7.814,7.813,7.814s7.816-3.504,7.816-7.814C119.224,84.26,115.81,80.788,111.582,80.695z M111.408,94.282   c-3.182,0-5.775-2.592-5.775-5.777c0-3.119,2.492-5.673,5.59-5.772l0.004,0.002l0.336-0.002c3.115,0.083,5.625,2.644,5.625,5.772   C117.187,91.69,114.595,94.282,111.408,94.282z"/><path d="M128.556,82.732l-0.188-0.003c-0.049,0-0.094,0-0.141,0.003h-0.018c-4.225,0.093-7.639,3.564-7.639,7.81   c0,4.311,3.506,7.815,7.813,7.815c4.311,0,7.816-3.505,7.816-7.815C136.201,86.297,132.785,82.825,128.556,82.732z M128.384,96.319   c-3.184,0-5.775-2.592-5.775-5.777c0-3.119,2.496-5.672,5.592-5.773l0.006,0.002l0.336-0.002c3.111,0.085,5.619,2.645,5.619,5.773   C134.162,93.727,131.57,96.319,128.384,96.319z"/><path d="M129.734,75.611c4.311,0,7.816-3.506,7.816-7.815c0-4.245-3.414-7.716-7.645-7.81l-0.189-0.002   c-0.047,0-0.092,0-0.141,0.002h-0.016c-4.229,0.093-7.639,3.564-7.639,7.81C121.921,72.104,125.423,75.611,129.734,75.611z    M129.552,62.024v0.002l0.336-0.002c3.115,0.083,5.625,2.643,5.625,5.772c0,3.186-2.592,5.777-5.779,5.777   c-3.184,0-5.775-2.592-5.775-5.777C123.958,64.677,126.451,62.121,129.552,62.024z"/></g></svg>
