<?xml version="1.0" encoding="UTF-8" standalone="no"?>
<svg
   xmlns="http://www.w3.org/2000/svg"
   version="1.1"
   x="0px"
   y="0px"
   viewBox="0 0 100 100"
   enable-background="new 0 0 100 100"
   xml:space="preserve"
   id="svg3981"
   width="100"
   height="100" ><defs
     id="defs3985" /><sodipodi:namedview
     pagecolor="#ffffff"
     bordercolor="#666666"
     borderopacity="1"
     objecttolerance="10"
     gridtolerance="10"
     guidetolerance="10"
     id="namedview3983"
     showgrid="false"/><g
     id="g3975"
     transform="matrix(1.0844806,0,0,1.1273115,-4.5097707,-6.188856)"><path
       d="m 91,42.405 c 0,-3.233 -1.117,-6.284 -3.087,-8.983 -0.979,-6.056 -6.057,-10.986 -12.76,-12.669 -3.65,-3.686 -11.869,-6.256 -21.43,-6.256 -6.246,0 -11.917,1.098 -16.12,2.886 -0.609,-0.042 -1.234,-0.066 -1.873,-0.066 -4.929,0 -9.096,1.333 -10.471,3.167 -4.957,1.533 -8.884,5.276 -10.541,10.028 -3.193,2.436 -5.223,6.072 -5.223,10.139 0,7.333 6.598,13.279 14.736,13.279 1.082,0 2.135,-0.107 3.15,-0.307 -0.273,0.742 -0.421,1.514 -0.421,2.309 0,5.729 7.493,10.369 16.737,10.369 2.575,0 5.014,-0.359 7.192,-1.004 3.451,4.377 9.526,12.775 11.484,19.926 h 4.611 c 0,0 -0.962,-6.707 -3.256,-13.74 1.9,1.092 4.21,1.732 6.703,1.732 6.475,0 11.725,-4.316 11.725,-9.643 0,-2.053 -0.783,-3.957 -2.115,-5.521 C 86.711,54.408 91,48.756 91,42.405 Z M 54.779,58.201 c -0.671,0.672 -1.596,1.008 -2.771,1.008 -1.175,0 -2.099,-0.336 -2.77,-1.008 -0.672,-0.672 -1.008,-1.512 -1.008,-2.52 0,-1.006 0.336,-1.85 1.008,-2.529 0.671,-0.68 1.577,-1.021 2.72,-1.021 1.208,0 2.149,0.342 2.82,1.021 0.671,0.679 1.007,1.523 1.007,2.529 0.001,1.008 -0.335,1.848 -1.006,2.52 z M 64.45,38.684 c -1.093,1.763 -2.855,2.979 -5.289,3.651 -2.435,0.672 -3.728,2.938 -3.879,6.799 h -7.051 c 0,-3.188 0.544,-5.833 1.636,-7.932 1.092,-2.098 3.006,-3.451 5.742,-4.055 2.3,-0.403 3.491,-2.098 3.576,-5.087 -0.587,-2.299 -2.905,-3.492 -6.95,-3.576 -3.021,0 -5.372,1.007 -7.052,3.022 L 40.147,26.47 c 1.678,-1.679 3.483,-2.938 5.414,-3.778 1.931,-0.839 4.651,-1.259 8.16,-1.259 3.021,0 5.879,1.012 8.573,3.034 2.695,2.023 4.044,4.705 4.044,8.046 -0.168,2.352 -0.798,4.408 -1.888,6.171 z"
       id="path3973" /></g></svg>
