<svg data-name="Layer 1" xmlns="http://www.w3.org/2000/svg" xmlns:xlink="http://www.w3.org/1999/xlink" width="868" height="731" viewBox="0 0 868 731"><defs><linearGradient id="a" x1="731.5" y1="630" x2="731.5" y2="105" gradientUnits="userSpaceOnUse"><stop offset="0" stop-color="gray" stop-opacity=".25"/><stop offset=".54" stop-color="gray" stop-opacity=".12"/><stop offset="1" stop-color="gray" stop-opacity=".1"/></linearGradient><linearGradient id="c" x1="136.5" y1="632" x2="136.5" y2="107" xlink:href="#a"/><linearGradient id="b" x1="136.5" y1="190" x2="136.5" y2="159" gradientUnits="userSpaceOnUse"><stop offset="0" stop-opacity=".12"/><stop offset=".55" stop-opacity=".09"/><stop offset="1" stop-opacity=".02"/></linearGradient><linearGradient id="d" x1="732.5" y1="237" x2="732.5" y2="206" xlink:href="#b"/><linearGradient id="e" x1="731.5" y1="285" x2="731.5" y2="254" xlink:href="#b"/><linearGradient id="f" x1="731.5" y1="333" x2="731.5" y2="302" xlink:href="#b"/><linearGradient id="g" x1="731.5" y1="381" x2="731.5" y2="350" xlink:href="#b"/><linearGradient id="h" x1="731.5" y1="429" x2="731.5" y2="398" xlink:href="#b"/><linearGradient id="i" x1="731.5" y1="477" x2="731.5" y2="446" xlink:href="#b"/><linearGradient id="j" x1="731.5" y1="525" x2="731.5" y2="494" xlink:href="#b"/><linearGradient id="k" x1="731.5" y1="573" x2="731.5" y2="542" xlink:href="#b"/><linearGradient id="l" x1="731.5" x2="731.5" xlink:href="#b"/><linearGradient id="m" x1="51" y1="223.5" x2="222" y2="223.5" xlink:href="#b"/><linearGradient id="n" x1="51" y1="270.5" x2="222" y2="270.5" xlink:href="#b"/><linearGradient id="o" x1="51" y1="317.5" x2="222" y2="317.5" xlink:href="#b"/><linearGradient id="p" x1="51" y1="365.5" x2="222" y2="365.5" xlink:href="#b"/><linearGradient id="q" x1="51" y1="413.5" x2="222" y2="413.5" xlink:href="#b"/><linearGradient id="r" x1="51" y1="461.5" x2="222" y2="461.5" xlink:href="#b"/><linearGradient id="s" x1="132" y1="664" x2="735" y2="664" xlink:href="#a"/><linearGradient id="t" x1="435" y1="89" x2="435" y2="50" xlink:href="#a"/><linearGradient id="u" x1="601" y1="704.8" x2="601" y2="406" xlink:href="#a"/></defs><path fill="#208089" opacity=".2" d="M69 0h731v731H69z"/><path fill="#208089" opacity=".5" d="M179 68.25h510v595.5H179z"/><path fill="url(#a)" d="M595 105h273v525H595z"/><path fill="url(#c)" d="M0 107h273v525H0z"/><path fill="#208089" d="M604 113h255v506H604zM264 619H9V113h255z"/><path fill="url(#b)" d="M51 159h171v31H51z"/><path fill="url(#d)" d="M647 206h171v31H647z"/><path fill="url(#e)" d="M646 254h171v31H646z"/><path fill="url(#f)" d="M646 302h171v31H646z"/><path fill="url(#g)" d="M646 350h171v31H646z"/><path fill="url(#h)" d="M646 398h171v31H646z"/><path fill="url(#i)" d="M646 446h171v31H646z"/><path fill="url(#j)" d="M646 494h171v31H646z"/><path fill="url(#k)" d="M646 542h171v31H646z"/><path fill="url(#l)" d="M646 159h171v31H646z"/><path fill="url(#m)" d="M51 208h171v31H51z"/><path fill="url(#n)" d="M51 255h171v31H51z"/><path fill="url(#o)" d="M51 302h171v31H51z"/><path fill="url(#p)" d="M51 350h171v31H51z"/><path fill="url(#q)" d="M51 398h171v31H51z"/><path fill="#fff" d="M55 163h164v24H55zm-.5 47h164v24h-164zm0 48h164v24h-164zm0 48h164v24h-164zm0 48h164v24h-164zm0 48h164v24h-164z"/><path fill="url(#r)" d="M51 446h171v31H51z"/><path fill="#fff" d="M54.5 450h164v24h-164z"/><path fill="#fff" d="M54.5 450h164v24h-164zm0 48h164v24h-164zm0 48h164v24h-164zM650 162h164v24H650zm0 48h164v24H650zm0 48h164v24H650zm0 48h164v24H650zm0 48h164v24H650zm0 48h164v24H650zm0 48h164v24H650zm0 48h164v24H650zm0 48h164v24H650z"/><path fill="url(#s)" d="M132 645h603v38H132z"/><path fill="#208089" d="M137 649h594v30H137z"/><path fill="url(#t)" d="M134 50h602v39H134z"/><path fill="#208089" d="M137 53h594v30H137z"/><path fill="#263238" opacity=".5" d="M289 113h292v506H289z"/><path d="M825.66 417.55c7 9.38-3.48 20.46-3.48 20.46l1.76.61c-2.59 2.87-12.82 15.82-52.26 74.4-50.5 75-118.55 93.71-118.55 93.71a84 84 0 00-27.73-14.31v-7.08a83 83 0 0055.3-53.48 85.08 85.08 0 009.14-38.44c0-48-39.77-86.94-88.82-86.94s-88.82 38.93-88.82 86.94a85.08 85.08 0 009.14 38.44 83 83 0 0055.3 53.48v7.08a84 84 0 00-27.73 14.31S480.83 588 430.33 513c-39.44-58.58-49.67-71.54-52.26-74.4l1.76-.61s-10.45-11.08-3.48-20.46-46.15-20.46-40.06 0 13.93 30.69 13.93 30.69 111.2 175.38 169.25 204.36a80.43 80.43 0 00-2.06 18.12v34.1h167.18v-34.1a80.43 80.43 0 00-2.06-18.12c58-29 169.25-204.35 169.25-204.35s7.84-10.23 13.93-30.69-47.02-9.37-40.05.01z" transform="translate(-166 -84.5)" fill="url(#u)"/><circle cx="435" cy="413.47" r="85.06" fill="#263238"/><circle cx="435" cy="426.82" r="80.06" fill="#f8c198"/><circle cx="403.31" cy="409.3" r="10.01" fill="#263238"/><circle cx="468.36" cy="409.3" r="10.01" fill="#263238"/><path d="M458.35 463.5c0 6-10.45 15.85-23.35 15.85s-23.35-9.85-23.35-15.85 10.45-5.84 23.35-5.84 23.35-.16 23.35 5.84z" fill="#fff"/><circle cx="405.81" cy="409.3" r="3.34" fill="#fff"/><circle cx="471.69" cy="409.3" r="3.34" fill="#fff"/><path d="M443 382.38c-4.88 0-9.26-4.24-9.78-9.09a12 12 0 017-11.75 3.42 3.42 0 011.47-.38c1.68 0 2.51 2 3.05 3.59 1.68 4.92 4.66 9.72 9.34 12s11.22 1.11 13.69-3.47c-6.62-2.95-9.45-12.21-5.6-18.35 1.49-2.37 3.81-4.38 4.28-7.14.86-5-4.62-8.64-9.47-10.14-14-4.33-62.8-4.81-65.49 16.08-2.82 22.04 36.14 31.57 51.51 28.65z" fill="#263238"/><ellipse cx="524.27" cy="512.15" rx="5" ry="14.18" transform="rotate(-21.53 219.11 906.482)" fill="#f8c198"/><ellipse cx="677.73" cy="512.15" rx="14.18" ry="5" transform="rotate(-68.47 532.614 591.868)" fill="#f8c198"/><path d="M484.91 524.34s65.17-18.3 113.54-91.69 50.87-73.59 50.87-73.59l25.85 10.21S555.09 562.75 503.39 572.76s-18.48-48.42-18.48-48.42z" fill="#ff9800"/><path d="M646.83 359.27s10-10.84 3.34-20 44.2-20 38.36 0-13.34 30-13.34 30z" fill="#f8c198"/><path d="M385.09 524.34s-65.17-18.3-113.54-91.69-50.87-73.59-50.87-73.59l-25.85 10.21s120.09 193.48 171.8 203.49 18.46-48.42 18.46-48.42z" fill="#ff9800"/><path d="M223.17 359.27s-10-10.84-3.34-20-44.2-20-38.36 0 13.34 30 13.34 30z" fill="#f8c198"/><path d="M462.29 342.77c-.48 2.76-2.8 4.76-4.28 7.14-3.37 5.38-1.62 13.16 3.32 17a12.79 12.79 0 01.85-11.14c1.49-2.37 3.81-4.38 4.28-7.14.54-3.13-1.41-5.73-4.13-7.6a6 6 0 01-.04 1.74zm-20.83 19.24c-.32-.75-.62-1.51-.88-2.27-.54-1.59-1.37-3.54-3.05-3.59a3.42 3.42 0 00-1.47.38 12 12 0 00-7 11.75 10.53 10.53 0 004.47 7.35 9.4 9.4 0 01-.3-1.51 12 12 0 017-11.75 3.87 3.87 0 011.23-.36zm-7.05 15.84c-12.16.51-31.78-4.13-41.45-14 7.22 15.36 37.05 21.79 50 19.32a10.08 10.08 0 01-8.55-5.32zm28.27-8.24c-2.92 3.43-8.58 4.15-12.75 2.12a14.54 14.54 0 01-3.7-2.61 17.84 17.84 0 007.87 8.44c4.68 2.27 11.22 1.11 13.69-3.47a11.88 11.88 0 01-5.11-4.48zm209.17-.34S551.76 562.75 500 572.76a60.33 60.33 0 01-9.07 1.11 53.05 53.05 0 0012.41-1.11c51.71-10 171.8-203.49 171.8-203.49l-2.68-.95c-.37.63-.61.95-.61.95zm-473.7 0S318.24 562.75 370 572.76a60.33 60.33 0 009.07 1.11 53.05 53.05 0 01-12.41-1.11c-51.71-10-171.8-203.49-171.8-203.49l2.68-.95c.37.63.61.95.61.95z" opacity=".2" fill="#fff"/><path d="M435 506.88a80.06 80.06 0 0180.06 80.06v33.36H354.94v-33.36A80.06 80.06 0 01435 506.88z" fill="#ff9800"/><path d="M435.83 507.3a80.93 80.93 0 00-8.72.47c1 0 1.91-.06 2.88-.06a80.06 80.06 0 0180.06 80.06v32.94h5.84v-33.35a80.06 80.06 0 00-80.06-80.06z" fill="#fff" opacity=".2"/><path d="M434.17 507.3a80.93 80.93 0 018.72.47c-1 0-1.91-.06-2.88-.06a80.06 80.06 0 00-80.06 80.06v32.94h-5.84v-33.35a80.06 80.06 0 0180.06-80.06z" fill="#fff" opacity=".2"/><rect x="411.65" y="484.78" width="46.7" height="56.29" rx="23.35" ry="23.35" fill="#f8c198"/></svg>